<svg id="Layer_1" data-name="Layer 1" xmlns="http://www.w3.org/2000/svg" viewBox="0 0 507.1 34.95"><defs><style>.cls-1{fill:#e8a23b;}</style></defs><title>h1_MLB_16_National_Banners_01d</title><path class="cls-1" d="M43.6,45.5l-7,7h-10l-0.5.5v6.75l1.5,4.5H15.35l1.25-4v-27l-1.25-4H37.1l6.5,6.49V45.5Zm-9.75-4V40.27l-1-2-2-1H26.6l-0.5.5V44l0.5,0.5h4.25l2-1Z" transform="translate(-15.35 -29.29)"/><path class="cls-1" d="M60.8,64.24H48.55l1.25-4v-27l-1.25-4H60.8l-1.25,4v27Z" transform="translate(-15.35 -29.29)"/><path class="cls-1" d="M92.65,54l-3.4,10.25h-14l-7-7v-21l7-7h13.5l3.4,10.2-6-2h-3.4l-3,1.5L78.5,41.53V52l1.25,2.49,3,1.5h3.9Z" transform="translate(-15.35 -29.29)"/><path class="cls-1" d="M129.35,64.24h-12.5l-0.5-4.5L112.2,47.49h-0.75L109,50l-0.5,1v9.25l1.25,4h-12l1.25-4v-27l-1.25-4h12l-1.25,4v7.25l0.75-1,7.25-7.25,1-3H128.2l1,1L119.45,40l7.1,19.47Z" transform="translate(-15.35 -29.29)"/><path class="cls-1" d="M175.6,29.29l-1.25,4v22l0.5,2.5-6.5,6.5H153.6l-6.5-6.49,0.5-2.5v-22l-1.25-4H158.6l-1.25,4V53l1,2,2,1h2l2-1,1-2V33.28l-1.25-4h11.5Z" transform="translate(-15.35 -29.29)"/><path class="cls-1" d="M210.8,45.5l-7,7h-10l-0.5.5v6.75l1.5,4.5H182.55l1.25-4v-27l-1.25-4H204.3l6.5,6.49V45.5Zm-9.75-4V40.27l-1-2-2-1H193.8l-0.5.5V44l0.5,0.5h4.25l2-1Z" transform="translate(-15.35 -29.29)"/><path class="cls-1" d="M254.55,39.24l-5.2-1.7h-3.9L245,38V59l1.75,5.24H233.45L235.2,59V38l-0.5-.5h-3.9l-5.2,1.7,3.35-10H251.2Z" transform="translate(-15.35 -29.29)"/><path class="cls-1" d="M286.9,64.24h-12l1.25-4v-10l-0.5-.5h-6l-0.5.5v10l1.25,4h-12l1.25-4v-27l-1.25-4h12l-1.25,4v7.47l0.5,0.5h6l0.5-.5V33.27l-1.25-4h12l-1.25,4v27Z" transform="translate(-15.35 -29.29)"/><path class="cls-1" d="M319.75,54l-3.4,10.25H294.6l1.25-4v-27l-1.25-4h21l3.15,9.45-4.4-1.45h-8.6l-0.4.49v3.46l0.5,0.49h3.25l3.75-1.2V51l-3.75-1.25h-3.25l-0.5.5V55l0.75,0.75h8.4Z" transform="translate(-15.35 -29.29)"/><path class="cls-1" d="M361.15,38.74l-4.3-1.45h-7.1l-1.5.75-0.75,1.5v1l1,1,7.75,1.75L361,48v9.73l-6.5,6.49H339.75L336.35,54l5.25,1.75h7.15l1.5-.75,0.75-1.5v-2l-1.25-1.25L342,48.5,337.5,44V35.77l6.5-6.49h14Z" transform="translate(-15.35 -29.29)"/><path class="cls-1" d="M393,39.24l-5.2-1.7H384l-0.5.5V59l1.75,5.24H372L373.7,59V38l-0.5-.5h-3.9l-5.2,1.7,3.35-10H389.7Z" transform="translate(-15.35 -29.29)"/><path class="cls-1" d="M409.15,64.24H396.9l1.25-4v-27l-1.25-4h12.25l-1.25,4v27Z" transform="translate(-15.35 -29.29)"/><path class="cls-1" d="M441,54l-3.4,10.25h-14l-7-7v-21l7-7h13.5l3.4,10.2-6-2h-3.4l-3,1.5-1.25,2.49V52l1.25,2.49,3,1.5H435Z" transform="translate(-15.35 -29.29)"/><path class="cls-1" d="M477.7,64.24H465.2l-0.5-4.5-4.15-12.25H459.8L457.3,50l-0.5,1v9.25l1.25,4H446l1.25-4v-27l-1.25-4h12l-1.25,4v7.25l0.75-1,7.25-7.25,1-3h10.75l1,1L467.8,40l7.1,19.47Z" transform="translate(-15.35 -29.29)"/><path class="cls-1" d="M504.9,38.74l-4.3-1.45h-7.1L492,38l-0.75,1.5v1l1,1L500,43.28,504.75,48v9.73l-6.5,6.49H483.5L480.1,54l5.25,1.75h7.15L494,55l0.75-1.5v-2l-1.25-1.25-7.75-1.75L481.25,44V35.77l6.5-6.49h14Z" transform="translate(-15.35 -29.29)"/><path class="cls-1" d="M522.45,61.74l-2.5,2.5h-6.5l-2.5-2.5v-6l2.5-2.5h6.5l2.5,2.5v6Z" transform="translate(-15.35 -29.29)"/></svg>