<svg id="Layer_1" data-name="Layer 1" xmlns="http://www.w3.org/2000/svg" viewBox="0 0 128.01 34.25"><defs><style>.cls-1{fill:#f9ae40;}.cls-2{fill:#102544;}</style></defs><title>cta_MLB_16_National_Banners_01c</title><rect class="cls-1" width="128.01" height="34.25"/><path class="cls-2" d="M1509.21,392.12l1.86,1.86v3.8l-1.18,1.17,1.17,1.17v4.27l-1.82,1.81h-7.93V403.7h1.24v-8.95h-1.24v-2.63h7.88Zm-3.81,2.64v3.94l2.23-1.15,0.58-.6v-1.6l-0.61-.6h-2.2Zm0,6.78v2.17h2.2l0.63-.6V401l-0.6-.6Z" transform="translate(-1485.99 -381.68)"/><path class="cls-2" d="M1521.68,392.12h5v2.54h-1.24l0,9.76-1.8,1.78h-4.84l-1.87-1.84v-9.69h-1.24v-2.54h5v2.54h-0.9v8.52l0.5,0.49h1.8l0.52-.53v-8.49h-0.89v-2.54Z" transform="translate(-1485.99 -381.68)"/><path class="cls-2" d="M1536.41,392.14h4.39v2.54h-1.19l-2.29,5.54v3.44h1.24v2.53h-5.3v-2.53h1.23v-3.44l-2.3-5.54H1531v-2.54h4.39v2.54h-0.3l0.84,2.09,0.81-2.09h-0.33v-2.54Z" transform="translate(-1485.99 -381.68)"/><path class="cls-2" d="M1559.63,392.12h4.61v2.54H1563v9h1.23v2.54h-5.38v-2.54h0.66l-2.29-4.76v4.76h0.7v2.54h-4.56v-2.54h1.24v-9h-1.24v-2.54h5.44v2.54h-0.5l2.1,4.11v-4.11h-0.76v-2.54Z" transform="translate(-1485.99 -381.68)"/><path class="cls-2" d="M1571,392.13h4.76l1.88,1.86v10.33l-1.88,1.87H1571l-1.87-1.87V394Zm1.47,11.5h1.8l0.52-.54v-7.91l-0.49-.5h-1.79l-0.54.54v7.9Z" transform="translate(-1485.99 -381.68)"/><path class="cls-2" d="M1593.53,392.12h4.88v2.54h-1.21l-2.72,11.54h-2.8l-1.4-6.79-1.42,6.79h-2.75l-2.79-11.54h-1.23v-2.54h4.84v2.54h-0.75l1.29,5.78,1-5.78h-0.6v-2.54h4.71v2.54H1592l1,5.78,1.34-5.78h-0.88v-2.54Z" transform="translate(-1485.99 -381.68)"/></svg>