<svg id="Layer_1" data-name="Layer 1" xmlns="http://www.w3.org/2000/svg" viewBox="0 0 203.81 33.55"><defs><style>.cls-1{fill:#fff;}.cls-2{fill:#db2b27;}.cls-3{fill:#184894;}.cls-4{fill:#231f20;}</style></defs><title>mlb-logo_MLB_16_National_Banners_01a</title><path class="cls-1" d="M551.78,436.38v-5.52h-13.5v5.52h3.8v25.26H548V436.38h3.8Z" transform="translate(-475.95 -429.62)"/><path class="cls-1" d="M567.39,461.64V430.86h-5.94v11.8h-2.83v-11.8h-5.9v30.78h5.9V448.43h2.83v13.21h5.94Z" transform="translate(-475.95 -429.62)"/><path class="cls-1" d="M580.89,461.64v-5.52H574.7v-7.65h5.13V443H574.7v-6.65h6.11v-5.52h-12v30.78h12.09Z" transform="translate(-475.95 -429.62)"/><path class="cls-1" d="M480.8,461.57a4.85,4.85,0,0,1-4.85-4.85V434.47a4.85,4.85,0,0,1,4.85-4.85h49.75a4.85,4.85,0,0,1,4.86,4.85v22.25a4.85,4.85,0,0,1-4.86,4.85H480.8Z" transform="translate(-475.95 -429.62)"/><path class="cls-2" d="M532.85,432.18a3.23,3.23,0,0,0-2.3-.95h-13.9l8,13.35,0.73,0.09,0.42,0.61v0.58l0.52,0.09,0.46,0.64v0.55l0.52,0.09s0.51,0.55.51,0.58v1.25A8.64,8.64,0,0,0,530,450.5c0.7,0.27.79,1.4,1.19,2,0.55,0.85,1.28,1.22,1.13,1.7-0.37,1.31-1.71,3.51-3,3.63h-4.94V460h6.17a3.24,3.24,0,0,0,3.24-3.24V434.47a3.23,3.23,0,0,0-.94-2.29h0Z" transform="translate(-475.95 -429.62)"/><path class="cls-3" d="M511.9,431.24H480.8a3.24,3.24,0,0,0-3.24,3.24v22.25A3.25,3.25,0,0,0,480.8,460H501c-0.51-.84-1.07-1.8-1.25-2.1h-2.41c0-6,2-9.3,4.44-9.94,0.33-.06.19-1.71-0.24-2.19a11.3,11.3,0,0,1-1.4,0c-0.3-.09-0.09-0.4-0.09-0.4l1.13-2.43-0.15-.67h-4.17c-0.06,0,3.44-2.41,3.44-2.41,0.18-6.34,6.67-6.83,10.6-4.21,2.32,1.55,2.5,4.6,2.32,6.74a1,1,0,0,1-.61,0s-0.39,2.32.64,2.32h4.57a7,7,0,0,1,3.66,1.19l0.45-1.59-10-13h0Zm-27.65,24.14a2.22,2.22,0,1,1,2.22-2.22,2.23,2.23,0,0,1-2.22,2.22h0Z" transform="translate(-475.95 -429.62)"/><path class="cls-4" d="M535.41,462.18a1,1,0,1,1,1,1,1,1,0,0,1-1-1h0Zm0.21,0a0.76,0.76,0,1,0,.77-0.77,0.76,0.76,0,0,0-.77.77h0Zm1.22,0.51H536.6l-0.24-.41h-0.18v0.41H536v-1h0.49c0.24,0,.4,0,0.4.32a0.27,0.27,0,0,1-.28.3l0.25,0.41h0Zm-0.36-.59c0.11,0,.18,0,0.18-0.14s-0.14-.11-0.24-0.11h-0.24v0.25h0.29Z" transform="translate(-475.95 -429.62)"/><path class="cls-2" d="M663.95,461.63V430.7h-5.19l-2.43,7.21v1.21h1.78v22.51h5.84Z" transform="translate(-475.95 -429.62)"/><path class="cls-2" d="M679.76,458.11V447c0-2.43-1-3.48-3.45-3.48h-5.11V436H674v4.53h5.76v-6.32c0-2.43-1.05-3.52-3.49-3.52h-7.3c-2.43,0-3.45,1.09-3.45,3.52v23.89c0,2.43,1.05,3.52,3.49,3.52h7.34C678.75,461.63,679.76,460.54,679.76,458.11ZM674,456.33h-2.84V448.8H674v7.53Z" transform="translate(-475.95 -429.62)"/><path class="cls-1" d="M600.28,458.15v-7.54a3.11,3.11,0,0,0-1.05-2.58l-7.47-6.94V436h2.59v4.92h5.94v-6.61c0-2.42-1.05-3.47-3.47-3.47h-7.51c-2.38,0-3.43,1.09-3.43,3.51v7.5a3.23,3.23,0,0,0,1,2.58l7.51,6.94v5.12h-2.59v-5.08h-5.9v6.73c0,2.42,1.05,3.51,3.43,3.51h7.51C599.19,461.66,600.28,460.57,600.28,458.15Z" transform="translate(-475.95 -429.62)"/><path class="cls-1" d="M616.35,461.66V430.85h-5.94v11.82h-2.83V430.85h-5.9v30.81h5.9V448.43h2.83v13.23h5.94Z" transform="translate(-475.95 -429.62)"/><path class="cls-1" d="M632.43,458.15V434.36c0-2.42-1.05-3.51-3.47-3.51H621.2c-2.42,0-3.43,1.09-3.43,3.51v23.79c0,2.42,1,3.51,3.43,3.51H629C631.38,461.66,632.43,460.57,632.43,458.15Zm-5.94-1.77h-2.83V436.13h2.83v20.24Z" transform="translate(-475.95 -429.62)"/><path class="cls-1" d="M655.78,430.85h-6.06l-1.33,13.35c0,0.4-.12,3.75-0.12,3.75s-0.08-3.35-.12-3.75l-1.37-13.35h-4.6l-1.37,13.35c0,0.4-.12,3.71-0.12,3.71s-0.08-3.31-.12-3.71l-1.33-13.35h-6.06l3.68,30.81h5.9l1.58-10.16c0-.32.16-2.7,0.16-2.7s0.12,2.38.16,2.7l1.58,10.16h5.9Z" transform="translate(-475.95 -429.62)"/><path class="cls-4" d="M656.53,430.84v0.07h-0.2v0.53h-0.08v-0.53H656v-0.07h0.49Z" transform="translate(-475.95 -429.62)"/><path class="cls-4" d="M656.67,430.84h0.12l0.17,0.51,0.17-.51h0.12v0.6h-0.08V431s0-.06,0-0.09l-0.17.51h-0.08l-0.17-.51v0.51h-0.08v-0.6Z" transform="translate(-475.95 -429.62)"/></svg>