<svg id="Layer_1" data-name="Layer 1" xmlns="http://www.w3.org/2000/svg" viewBox="0 0 245.48 64.36"><defs><style>.cls-1{fill:#fff;}</style></defs><title>h1_MLB_16_National_Banners_01a</title><path class="cls-1" d="M483.62,283V271.49H455.4V283h7.94V335.8h12.33V283h7.94Z" transform="translate(-455.4 -271.47)"/><path class="cls-1" d="M516.22,335.8v-64.3H503.8v24.66h-5.91V271.49H485.56v64.3h12.33V308.19h5.91V335.8h12.42Z" transform="translate(-455.4 -271.47)"/><path class="cls-1" d="M544.43,335.8V324.26H531.51v-16h10.73V296.91H531.51V283h12.75V271.49H519.17v64.3h25.26Z" transform="translate(-455.4 -271.47)"/><path class="cls-1" d="M584.94,328.5V312.75a6.5,6.5,0,0,0-2.19-5.39l-15.61-14.49V282.25h5.4v10.28h12.41V278.71c0-5.05-2.19-7.25-7.26-7.25H562c-5,0-7.17,2.27-7.17,7.33v15.67a6.75,6.75,0,0,0,2,5.39l15.7,14.49V325h-5.4V314.43H554.81V328.5c0,5.05,2.19,7.33,7.17,7.33h15.7C582.66,335.83,584.94,333.56,584.94,328.5Z" transform="translate(-455.4 -271.47)"/><path class="cls-1" d="M618.52,335.83V271.47H606.12v24.68h-5.91V271.47H587.89v64.36h12.32V308.2h5.91v27.63h12.41Z" transform="translate(-455.4 -271.47)"/><path class="cls-1" d="M652.11,328.5V278.8c0-5.05-2.19-7.33-7.26-7.33h-16.2c-5.06,0-7.17,2.27-7.17,7.33V328.5c0,5.05,2.11,7.33,7.17,7.33h16.2C649.91,335.83,652.11,333.56,652.11,328.5Zm-12.41-3.71h-5.91V282.5h5.91v42.29Z" transform="translate(-455.4 -271.47)"/><path class="cls-1" d="M700.89,271.47H688.23l-2.78,27.89c-0.08.84-.25,7.83-0.25,7.83s-0.17-7-.25-7.83l-2.87-27.89h-9.62l-2.87,27.89c-0.08.84-.25,7.75-0.25,7.75s-0.17-6.91-.25-7.75l-2.78-27.89H653.63l7.68,64.36h12.32l3.29-21.23c0.08-.67.34-5.64,0.34-5.64s0.25,5,.34,5.64l3.29,21.23h12.32Z" transform="translate(-455.4 -271.47)"/></svg>