<svg id="Layer_1" data-name="Layer 1" xmlns="http://www.w3.org/2000/svg" viewBox="0 0 245.33 21.05"><defs><style>.cls-1{fill:#f9ae40;}</style></defs><title>h2_MLB_16_National_Banners_01b</title><path class="cls-1" d="M824.2,271.47h5.92L829,273.25,824.87,291l0.66,1.54h-6.08l0.62-1.58-1.82-8.6-1.79,8.63,0.75,1.55h-6.15l0.6-1.58-4.2-17.67-1-1.79h5.92l-0.72,1.63,2.45,10.77L816,273.21l-0.67-1.74h5.95l-0.75,1.7,1.93,10.69L824.88,273Z" transform="translate(-785.49 -271.45)"/><path class="cls-1" d="M836.61,271.48h11.53l0.92,4.41-1.76-.6h-5.87v4.53h4.16l1.71-.59v4.85l-1.63-.54h-4.25v5.14h7l1.74-.6-0.88,4.41H836.61l0.57-1.55V273.19Z" transform="translate(-785.49 -271.45)"/><path class="cls-1" d="M856.69,271.47h5.43l-0.59,1.74v15.48h7l1.74-.6-0.13.62-0.75,3.79H856.69l0.57-1.55V273.18Z" transform="translate(-785.49 -271.45)"/><path class="cls-1" d="M880.06,271.47h7.13l2.83,2.8v1.92L885.76,278v-2l-0.75-.76h-2.7l-0.81.81v11.84l0.76,0.75H885l0.78-.81v-1l4.28-1.86v4.64l-2.83,2.78h-7.13l-2.8-2.8V274.26Z" transform="translate(-785.49 -271.45)"/><path class="cls-1" d="M900.36,271.48h7.1l2.81,2.78V289.7l-2.81,2.8h-7.1l-2.8-2.8V274.28Zm2.2,17.18h2.7l0.78-.82V276.05l-0.73-.76h-2.67l-0.82.82V287.9Z" transform="translate(-785.49 -271.45)"/><path class="cls-1" d="M929.44,271.48H935l-0.57,1.73v17.72l0.76,1.57H930l0.59-1.58h0v-11l-2.8,7.43H925l-2.81-7.43v11l0.76,1.57h-5.16l0.59-1.58v-17.7l-0.59-1.74h5.55l3,8.31Z" transform="translate(-785.49 -271.45)"/><path class="cls-1" d="M942.65,271.48h11.53l0.92,4.41-1.76-.6h-5.87v4.53h4.16l1.71-.59v4.85l-1.63-.54h-4.25v5.14h7l1.74-.6-0.88,4.41H942.65l0.57-1.55V273.19Z" transform="translate(-785.49 -271.45)"/><path class="cls-1" d="M975.36,271.45h12.16l0.91,4.41-1.74-.6h-3.15v15.67l0.76,1.57h-5.61l0.59-1.57V275.26H976.2l-1.74.6Z" transform="translate(-785.49 -271.45)"/><path class="cls-1" d="M998.22,271.48h7.1l2.81,2.78V289.7l-2.81,2.8h-7.1l-2.8-2.8V274.28Zm2.2,17.18h2.7l0.78-.82V276.05l-0.73-.76h-2.67l-0.82.82V287.9Z" transform="translate(-785.49 -271.45)"/><polygon class="cls-1" points="6.03 5.83 7.68 9.91 12.06 10.21 8.69 13.04 9.76 17.31 6.03 14.97 2.3 17.31 3.37 13.04 0 10.21 4.39 9.91 6.03 5.83"/><polygon class="cls-1" points="239.3 5.83 240.95 9.91 245.33 10.21 241.96 13.04 243.03 17.31 239.3 14.97 235.57 17.31 236.64 13.04 233.27 10.21 237.66 9.91 239.3 5.83"/></svg>