<svg id="Layer_1" data-name="Layer 1" xmlns="http://www.w3.org/2000/svg" viewBox="0 0 105.18 22.55"><defs><style>.cls-1{fill:#f9ae40;}.cls-2{fill:#132c50;}</style></defs><title>MLB_16_National_Banners_01a_cta</title><rect class="cls-1" width="105.18" height="22.55"/><path class="cls-2" d="M257.93,279.51h3.29v1.67h-0.74v5.91h1.85v-0.81h1.58v2.49h-5.95v-1.68h0.75v-5.91h-0.76v-1.67Z" transform="translate(-247.93 -272.66)"/><path class="cls-2" d="M266.89,279.51h6V282h-1.59v-0.81h-1.84v2H272v1.65h-2.58v2.27h1.84v-0.81h1.59v2.48h-6v-1.66h0.75v-5.93h-0.77v-1.67Z" transform="translate(-247.93 -272.66)"/><path class="cls-2" d="M277.73,279.51h2.11l1.3,7.59h0.77v1.67H279.1V287.1h0.43l-0.08-.82h-1.3l-0.1.82h0.45v1.67h-2.84V287.1h0.76ZM278.8,282l-0.39,2.64h0.79Z" transform="translate(-247.93 -272.66)"/><path class="cls-2" d="M284.48,279.51h4.92l1.17,1.23v3.56l-1,1.1,0.78,1.7h0.78v1.67h-2.9V287.1h0.23l-0.67-1.61H287v1.61h0.53v1.67h-3.09V287.1h0.77v-5.92h-0.77v-1.67Zm2.55,1.68v2.61h1.37l0.39-.39v-1.82l-0.37-.39H287Z" transform="translate(-247.93 -272.66)"/><path class="cls-2" d="M297.59,279.51h2.88v1.67h-0.77v5.92h0.77v1.67h-3.35V287.1h0.41L296.1,284v3.13h0.43v1.67h-2.85V287.1h0.77v-5.92h-0.77v-1.67h3.39v1.67h-0.31l1.31,2.71v-2.71h-0.48v-1.67Z" transform="translate(-247.93 -272.66)"/><path class="cls-2" d="M313.9,279.52h2.8v1.67H316v5.93h0.75v1.67h-3.08v-1.67h0.76v-3.87l-1.17,3.28H312l-1.17-3.28v3.87h0.77v1.67H308.5v-1.67h0.77v-5.93h-0.76v-1.67h2.84l1.27,3.66Z" transform="translate(-247.93 -272.66)"/><path class="cls-2" d="M320.82,279.52h3l1.17,1.23v6.8l-1.17,1.23h-3l-1.17-1.23v-6.79Zm0.92,7.56h1.13l0.32-.35v-5.2l-0.31-.33h-1.12l-0.34.35v5.2Z" transform="translate(-247.93 -272.66)"/><path class="cls-2" d="M328.06,279.51H333l1.17,1.23v3.56l-1,1.1,0.78,1.7h0.78v1.67h-2.9V287.1H332l-0.67-1.61h-0.7v1.61h0.53v1.67h-3.09V287.1h0.77v-5.92h-0.77v-1.67Zm2.55,1.68v2.61H332l0.39-.39v-1.82l-0.37-.39h-1.39Z" transform="translate(-247.93 -272.66)"/><path class="cls-2" d="M337.28,279.51h6V282h-1.59v-0.81h-1.84v2h2.58v1.65h-2.58v2.27h1.84v-0.81h1.59v2.48h-6v-1.66h0.75v-5.93h-0.77v-1.67Z" transform="translate(-247.93 -272.66)"/></svg>