<svg id="Layer_1" data-name="Layer 1" xmlns="http://www.w3.org/2000/svg" viewBox="0 0 44.72 10.19"><defs><style>.cls-1{fill:#fff;}.cls-2{fill:#ec1f33;}.cls-3{fill:#232f64;}.cls-4{fill:#2e2f79;}</style></defs><title>MLB_16_National_Banners_01a_mlb</title><path class="cls-1" d="M331.32,270.3a1.47,1.47,0,0,1-1.42-1.5v-6.88a1.47,1.47,0,0,1,1.42-1.5h41.87a1.46,1.46,0,0,1,1.42,1.5v6.88a1.46,1.46,0,0,1-1.42,1.5H331.32Z" transform="translate(-329.9 -260.41)"/><path class="cls-2" d="M373.86,261.21a0.92,0.92,0,0,0-.67-0.29h-5.07l2.35,4.13,0.22,0,0.12,0.19v0.18l0.15,0,0.13,0.2v0.17l0.15,0L371.4,266v0.39a2.53,2.53,0,0,0,.63.44,1.33,1.33,0,0,1,.35.62,1.1,1.1,0,0,1,.33.53,1.63,1.63,0,0,1-.87,1.12h-1.45v0.65h2.8a1,1,0,0,0,.95-1v-6.88A1,1,0,0,0,373.86,261.21Z" transform="translate(-329.9 -260.41)"/><path class="cls-3" d="M366.73,260.92H331.32a0.92,0.92,0,0,0-.67.29,1,1,0,0,0-.28.71v6.88a1,1,0,0,0,.28.71,0.92,0.92,0,0,0,.67.29h32.21l-0.37-.65h-0.71c0-1.85.6-2.88,1.3-3.08a0.77,0.77,0,0,0-.07-0.68,3.24,3.24,0,0,1-.41,0c-0.09,0,0-.12,0-0.12l0.33-.76,0-.21h-1.22s1-.75,1-0.75c0.05-2,2-2.11,3.11-1.3a2.27,2.27,0,0,1,.68,2.08,0.29,0.29,0,0,1-.18,0s-0.12.72,0.19,0.72h1.34a2,2,0,0,1,1.07.37l0.13-.49Z" transform="translate(-329.9 -260.41)"/><path class="cls-1" d="M347.11,266.92a0.63,0.63,0,0,1,.47.2,0.71,0.71,0,0,1,0,1,0.64,0.64,0,0,1-.94,0,0.72,0.72,0,0,1,0-1A0.63,0.63,0,0,1,347.11,266.92Z" transform="translate(-329.9 -260.41)"/><path class="cls-1" d="M351.52,265.24l-0.92.2a0.83,0.83,0,0,0-.21-0.49,0.59,0.59,0,0,0-.43-0.16,0.66,0.66,0,0,0-.56.29,1.67,1.67,0,0,0-.21,1,1.94,1.94,0,0,0,.21,1.06,0.66,0.66,0,0,0,.57.31,0.57,0.57,0,0,0,.44-0.18,1.21,1.21,0,0,0,.24-0.63l0.92,0.19a2.06,2.06,0,0,1-.55,1.14,1.53,1.53,0,0,1-1.09.39,1.51,1.51,0,0,1-1.24-.58,3,3,0,0,1,0-3.23,1.7,1.7,0,0,1,2.29-.25A1.87,1.87,0,0,1,351.52,265.24Z" transform="translate(-329.9 -260.41)"/><path class="cls-1" d="M353.16,265.15a0.74,0.74,0,0,1,1.24,0,1.56,1.56,0,0,1,.25,1,1.59,1.59,0,0,1-.25,1,0.74,0.74,0,0,1-1.24,0A2,2,0,0,1,353.16,265.15Zm-1,2.13a1.66,1.66,0,0,0,.67.77,1.8,1.8,0,0,0,.93.26,1.63,1.63,0,0,0,1.31-.63,2.66,2.66,0,0,0,0-3.15,1.65,1.65,0,0,0-1.32-.62,1.71,1.71,0,0,0-.95.27,1.78,1.78,0,0,0-.65.79,2.62,2.62,0,0,0-.23,1.07A3,3,0,0,0,352.18,267.28Z" transform="translate(-329.9 -260.41)"/><path class="cls-1" d="M356,264.1h0.87v0.58A1.34,1.34,0,0,1,358,264a1,1,0,0,1,.59.17,1.21,1.21,0,0,1,.41.51,1.74,1.74,0,0,1,.51-0.51A1.09,1.09,0,0,1,360,264a1.14,1.14,0,0,1,.66.19,1.12,1.12,0,0,1,.41.55,2.81,2.81,0,0,1,.1.87v2.69h-0.94v-2.41a2.08,2.08,0,0,0-.1-0.81,0.43,0.43,0,0,0-.4-0.24,0.57,0.57,0,0,0-.37.14,0.8,0.8,0,0,0-.25.42,3.54,3.54,0,0,0-.08.87v2h-0.94V266a3.8,3.8,0,0,0-.05-0.79,0.52,0.52,0,0,0-.16-0.27,0.44,0.44,0,0,0-.29-0.09,0.61,0.61,0,0,0-.39.14,0.77,0.77,0,0,0-.25.4,3.5,3.5,0,0,0-.08.87v2H356V264.1Z" transform="translate(-329.9 -260.41)"/><path class="cls-1" d="M343.68,263.53a1.29,1.29,0,0,1,.69.16,0.55,0.55,0,0,1,.18.43,0.59,0.59,0,0,1-.19.46,1.33,1.33,0,0,1-.73.17h-0.53v-1.23h0.57Zm0.38,4.78a2.28,2.28,0,0,0,1.05-.2,1.58,1.58,0,0,0,.62-0.61,1.72,1.72,0,0,0,.24-0.9,1.65,1.65,0,0,0-.23-0.89,1.75,1.75,0,0,0-.73-0.63,1.52,1.52,0,0,0,.43-0.51,1.36,1.36,0,0,0,.13-0.6,1.4,1.4,0,0,0-.29-0.89,1.48,1.48,0,0,0-.79-0.52,9.15,9.15,0,0,0-1.55-.1h-0.87v5.84h2Zm-0.43-2.56a2,2,0,0,1,1,.22,0.72,0.72,0,0,1,.27.6,0.6,0.6,0,0,1-.23.51,2.23,2.23,0,0,1-1,.17h-0.56v-1.5h0.51Z" transform="translate(-329.9 -260.41)"/><path class="cls-1" d="M332.1,268.31V262.5h1.67l1,4,1-4h1.68v5.81h-1v-4.58l-1.09,4.58h-1.07l-1.09-4.58v4.58h-1Z" transform="translate(-329.9 -260.41)"/><path class="cls-1" d="M338,262.48h1v4.78h2.42v1.06H338v-5.84Z" transform="translate(-329.9 -260.41)"/><path class="cls-4" d="M374.39,270.28c0-.07,0-0.09-0.1-0.09h-0.13v0.28h0.05v-0.11h0l0.06,0.11h0.06l-0.06-.11A0.07,0.07,0,0,0,374.39,270.28Zm-0.1,0h-0.07v-0.07h0.06s0.06,0,.06,0S374.32,270.32,374.29,270.32Z" transform="translate(-329.9 -260.41)"/><path class="cls-4" d="M374.26,270.07a0.27,0.27,0,1,0,.25.27A0.26,0.26,0,0,0,374.26,270.07Zm0,0.47a0.21,0.21,0,1,1,.2-0.21A0.2,0.2,0,0,1,374.26,270.55Z" transform="translate(-329.9 -260.41)"/></svg>