<?xml version="1.0" encoding="utf-8"?>
<!-- Generator: Adobe Illustrator 19.2.0, SVG Export Plug-In . SVG Version: 6.00 Build 0)  -->
<svg version="1.1" id="Layer_1" xmlns="http://www.w3.org/2000/svg" xmlns:xlink="http://www.w3.org/1999/xlink" x="0px" y="0px"
	 viewBox="0 0 20 20.1" style="enable-background:new 0 0 20 20.1;" xml:space="preserve">
<style type="text/css">
	.st0{fill:#001722;}
	.st1{fill:#FFFFFF;}
	.st2{fill:#BA9108;}
	.st3{fill:#007AC1;}
	.st4{fill:#E40473;}
	.st5{fill:#231F20;}
</style>
<polygon class="st0" points="7.5,0.1 16.2,0.1 16.2,20 7.5,20 7.5,0.1 "/>
<path class="st1" d="M16.4,20.1H7.4V0h8.9V20.1z M7.7,19.9h8.5V0.2H7.7V19.9L7.7,19.9z"/>
<path class="st0" d="M18.8,17.5c-0.7,0-1.4-0.1-2.1-0.3c-0.2-0.3-0.3-0.7-0.2-1l-0.6-1c-0.3-0.1-0.6-0.3-0.9-0.6l0,0l-0.2-0.8
	l-4.5-2.3l-0.1-1.7c-0.1-0.1-0.2-0.2-0.1-0.4c0.2-0.3,0.4-0.5,0.6-0.8c-0.2-0.2-0.3-0.3-0.5-0.4C10.1,8.2,10,8.1,10,8v0.1H9.9
	c-1,0.5-1,0.5-1.1,0.4C8.4,8,8.2,7.6,8.1,7.1l0,0l0.1-2.2L9.1,6h0.2l0.1-0.2c-0.3,0-0.6-0.2-0.8-0.5L8.6,5.3H8.5l0.2-0.6L9.2,4h1.4
	l0,0c0.3,0,0.6,0.1,0.9,0.1l0,0c0.2,0,0.4,0,0.7,0h0.5l-0.8,0.7h-0.1c-0.3,0-0.5,0-0.8-0.1l-0.3-0.1v0.4l0.2,0.6l-0.1,0.4
	c0.3,0.1,0.5,0.2,0.8,0.3h0.1l0,0c1.3,1.3,1.5,2.2,1.5,2.4L13,9.2l-0.2-0.4l-0.1,0.8h-0.1v0.1h-0.1h-0.2l0.1,0l0.3,0.3l0,0
	c0.2,0,0.3,0.1,0.5,0.2l0.4,0.4l0,0c0.2,0.1,0.4,0.1,0.5,0.3l-0.2,0.3c-0.2-0.1-0.5-0.1-0.7,0c0.1,0.2,0.2,0.3,0.4,0.4l0,0
	c0.2,0.1,0.4,0.2,0.6,0.2c1,0,1.1,0.3,1.1,0.4v0.1l0.9-0.2l0.5,1.1h-0.1l0.6,1.2l0.7,1.1v-0.1h0.9l0.1,0.3h1l0,0.1
	c0.2,0.2,0.2,0.6,0,0.8C19.7,16.9,19.3,17.3,18.8,17.5L18.8,17.5L18.8,17.5z M16.1,14.3L16.1,14.3z M15.5,13.3l0.4,1
	c-0.1-0.4-0.2-0.8-0.4-1.1L15.5,13.3z M14.5,12.5l0.4,0.5c0.1-0.1,0.2-0.1,0.3-0.2L14.5,12.5z M15.6,12.5l0.2,0.1v0.1l0.1,0.2l0,0
	L15.6,12.5L15.6,12.5z M10.4,9.5L10.4,9.5L10.4,9.5v0.2v0l0.1-0.2c0.1-0.1,0.2-0.2,0.2-0.3h0l-0.1-0.1c0,0,0-0.1,0-0.1
	C10.6,9.2,10.5,9.3,10.4,9.5L10.4,9.5z M12.3,8.9L12.3,8.9L12.3,8.9L12.3,8.9z M10.6,6.4c0.2,0.2,0.4,0.4,0.7,0.5
	c0.3,0.2,0.6,0.3,0.8,0.6c-0.2-0.3-0.4-0.5-0.7-0.8C11.1,6.7,10.8,6.6,10.6,6.4L10.6,6.4z M10.4,6.9c0.2,0.2,0.5,0.3,0.8,0.4l0,0
	C10.9,7.2,10.7,7,10.4,6.9L10.4,6.9z"/>
<path class="st0" d="M7.4,16.6c-0.2,0-0.7,0-1.7-0.1H5.6L5.3,16l0.2-0.1l-0.3-0.8H5.1L5,14.5L4.9,14h0.2v-0.1l0.2-0.2l1.2-0.1
	l0.1,0.1l1.1,0.1l0.6,0l0.2-0.1v-0.1l0,0l0.7-0.2h0.6l0,0l0,0H10l0.4-1l-0.2-0.1l0.3-1.2l0.7,1.2L10.8,13l0.2-0.2
	c0.5-0.4,1.1-0.5,1.7-0.4h0.1v0.1c-0.1,0.5-0.3,1-0.6,1.4c-0.3,0.3-0.6,0.7-0.8,1.1v0.1l-0.1,0c-0.1,0.1-0.1,0.1-3.2-0.1H8.1
	l-0.2-0.2l-0.7,0.1l-0.1,0.7c0.3,0.1,0.5,0.3,0.6,0.5v0.1l-0.1,0.1C7.6,16.5,7.6,16.6,7.4,16.6z M10.8,12.3L10.8,12.3L10.8,12.3
	L10.8,12.3z M10.6,12.1L10.6,12.1z"/>
<path class="st0" d="M0,5.4l1.3-1.3l7.5,0.4L8.2,5.3L0,5.4z"/>
<path class="st2" d="M10.5,3.6c0-0.1,0-0.2,0-0.3c0-0.1-0.3-0.6-0.3-0.6c-0.1-0.2,0-0.4,0-0.6c0.3-0.3,0.5-0.6,0.9-0.8
	c0.2-0.1,0.5,0,0.7,0.1l0.4,0.5l0.7-0.2c0,0,0.2,0,0.2,0.2l-0.5,0.5v0.4L12.7,3l-0.1,0.2l0,0.1l-0.1,0.1v0.4c-0.2,0.1-0.5,0.1-0.7,0
	v0.2c-0.2,0.1-0.4,0-0.5-0.1l0.1-0.7c0.2,0.3,0.4,0.4,0.8,0.4l0.2-0.4L12.2,3l0-0.2l-0.5-0.4c0,0,0-0.1,0.1-0.1c0,0,0,0,0,0
	c0.1,0.1,0.2,0.1,0.2,0c0-0.1-0.1-0.2-0.2-0.3l-0.7,0.4c0,0-0.3-0.2-0.3,0c0,0.1,0,0.3,0,0.4c0.1,0,0.2,0,0.2,0l0,0.4l-0.4-0.1
	L10.5,3.6L10.5,3.6L10.5,3.6z"/>
<polygon class="st2" points="10.1,3.9 10.7,3.5 10.8,3.9 10.1,3.9 "/>
<path class="st2" d="M12.9,3.6l0.8,0.1l0.5,1.1c-0.1,0.4-0.2,0.7-0.5,1l-1.1,0.1L13.6,5V4L12.9,3.6L12.9,3.6L12.9,3.6z"/>
<path class="st2" d="M12.7,4L13,4.1l0.3,0.5c0,0.4-0.2,0.8-0.6,1l-2-0.4l-0.1-0.3L12.3,5L12,4.6l0.9-0.1L12.7,4L12.7,4L12.7,4z"/>
<path class="st2" d="M11.4,4.2c-0.3-0.1-0.6-0.1-0.8-0.1H9.2L8.8,4.6L8.7,4.9L9,4.8l0.4-0.5h0.3C9.4,4.4,9.3,4.7,9.3,4.9
	C9.3,5,9.2,5,9.1,5c0,0-0.2,0.3-0.3,0.1l0,0.1c0.2,0.3,0.6,0.5,1,0.4C9.6,5.7,9.5,5.9,9.4,6.1L9,6.1L8.3,5.3L8.2,7
	c0.1,0.5,0.3,0.9,0.6,1.3l0.9-0.4l0.1-0.3C10,7.8,10.1,7.9,10.3,8c0.2,0.2,0.4,0.4,0.7,0.6c-0.3,0.2-0.5,0.5-0.7,0.8
	c0,0.1,0.1,0.1,0.1,0.2l0.1,1.7l4.5,2.3l0.2,0.8c0.2,0.3,0.5,0.5,0.8,0.6l0.7,1.2c-0.1,0.3-0.1,0.7,0.1,1c0.6,0.1,1.3,0.2,1.9,0.2
	c0.4-0.2,0.7-0.5,0.9-0.8c0.1-0.2,0.1-0.4,0-0.6h-1.1l-0.1-0.3h-0.7l-0.1,0.2l-0.9-1.4L16.1,13h0.1l-0.3-0.7L15,12.4l0.7,0.2
	l0.8,1.4c0,0.2-0.2,0.3-0.3,0.3l0.5,0.1c-0.1,0.2-0.3,0.3-0.5,0.4l-0.8-1.7l0.2-0.4c-0.2,0-0.5,0.2-0.6,0.3l-0.6-0.8
	c0.1-0.2,0.4-0.3,0.6-0.3c0,0-0.1-0.2-0.9-0.2c-0.2,0-0.5-0.1-0.7-0.2c0,0-0.7-0.4-0.4-0.7c0.3-0.1,0.6-0.1,0.9,0
	c-0.4-0.3-0.9-0.4-1.4-0.2c-0.1,0-0.1-0.1-0.1-0.2c0.2-0.2,0.4-0.2,0.6-0.2c-0.3-0.2-0.7-0.1-1,0.1c0,0-0.1,0,0-0.3
	c0-0.1,0.1-0.3,0.3-0.3c0,0-0.2-0.2-0.7,0.2c0.2-0.4,0.6-0.7,1-0.6c-0.4-0.2-0.9-0.1-1.2,0.2c-0.4,0.2-0.6,0.6-0.7,1
	c-0.1-0.3,0-0.6,0.1-0.9c0.1-0.2,0.3-0.4,0.5-0.5h0.2c-0.1-0.2-0.2-0.3-0.4-0.3C11,9,11,8.9,11.1,8.8c0.5,0,1,0.2,1.5,0.5V8.8
	l-1.4-0.1c0-0.3-0.1-0.5-0.2-0.8c0.2,0.1,0.4,0.3,0.5,0.6h0.5c-0.2-0.3-0.5-0.6-0.8-0.8c0.4,0.1,0.8,0.4,1,0.8c0.1,0,0.3,0,0.4,0.1
	c-0.3-0.5-0.8-0.9-1.3-1c-0.4-0.1-0.8-0.3-1.1-0.6l0.2-0.4c0.2,0.2,0.5,0.4,0.8,0.6c0.7,0.4,1.3,0.9,1.7,1.6
	c-0.2-0.9-0.7-1.6-1.4-2.2c-0.4-0.1-0.7-0.2-1-0.4l0.1-0.5l-0.2-0.6V4.7L9.9,4.4c0.3,0,0.7,0.1,1,0.1c0.2,0,0.5,0.1,0.8,0.1L12,4.3
	c-0.2,0-0.5,0-0.7,0l0,0L11.4,4.2z"/>
<path class="st2" d="M10.7,5.4l0.7,0.7l0.4,0.1C11.5,5.9,11.1,5.6,10.7,5.4"/>
<path class="st2" d="M11.7,6.4c0.4,0.4,0.7,0.8,1,1.3l-0.3-0.8C12.2,6.7,11.9,6.6,11.7,6.4L11.7,6.4L11.7,6.4z"/>
<path class="st2" d="M12.6,6.6L13,6.9L13.4,6c-0.1,0.5-0.1,0.9-0.3,1.4c0,0,0.1,0.8,0.1,1.5l-0.1-0.1C13.1,8,12.9,7.3,12.6,6.6
	L12.6,6.6L12.6,6.6z"/>
<polygon class="st2" points="12.9,8.8 12.8,9.2 13.4,9.5 13.4,9.3 12.9,8.8 "/>
<path class="st2" d="M12.9,9.5c0.9,0.7,1.7,1.4,2.4,2.2c0,0-1-0.8-1.9-1.4c-0.4-0.2-0.7-0.3-1.1-0.4c0.2-0.1,0.5-0.1,0.8-0.1
	L12.9,9.5L12.9,9.5L12.9,9.5z"/>
<path class="st2" d="M11.1,13c0.4-0.3,1-0.5,1.6-0.3c-0.1,0.4-0.3,0.9-0.6,1.2c-0.4,0.4-0.7,0.8-0.9,1.3l-3-0.2l-0.2-0.2L7.1,15
	l-0.1,0.7l-0.2,0.2c0.3,0,0.6,0.2,0.8,0.5l-1.8-0.1l-0.1-0.2l0.2-0.1l-0.4-1H5.3v-0.3h0.2v-0.2H5.3l0-0.2h0.2V14l0.1-0.1l1-0.1
	l0.1,0.1l1.2,0.1l0.7-0.1l0.9-0.3h0.8l0.5-1.3l-0.2-0.1l0.2-0.6l0.4,0.7l-0.5,0.9h0.4l-0.5,0.4c0.2,0.1,0.4,0.1,0.6-0.1
	c-0.1,0.2-0.3,0.4-0.5,0.5c-0.2,0-0.4-0.1-0.5-0.2l-0.1,0.5c0-0.3-0.2-0.5-0.5-0.6l-1,0.3l0,0.6l0.1-0.5l0.2,0.6l2.4-0.3l0.2-1.3
	C11.4,13,11.3,13,11.1,13L11.1,13L11.1,13z"/>
<polygon class="st2" points="8.4,4.7 8.1,5.1 0.4,5.2 1.3,4.4 8.4,4.7 "/>
<path class="st0" d="M9.7,4.5c0,0.1,0.2,0.2,0.3,0.1c0,0,0,0.2,0.3,0.1c-0.1,0.1-0.1,0.3,0,0.4c0,0-0.2-0.2-0.3,0c0,0-0.1,0-0.1,0
	c0,0,0-0.3-0.2-0.1C9.7,4.9,9.7,4.7,9.7,4.5L9.7,4.5L9.7,4.5z"/>
<path class="st0" d="M9.8,5.7L10.2,6L9.5,7.2C9.4,7.4,9.3,7.5,9,7.6c-0.2,0-0.3,0-0.5,0C8.5,7.2,8.7,6.8,9,6.6c0.1,0,0.2,0,0.3,0
	L9.8,5.7L9.8,5.7L9.8,5.7z"/>
<path class="st1" d="M17.7,16l-0.3,0.5l-0.5-0.8c-0.2-0.2-0.2-0.6-0.1-0.8c0-0.1,0.2-0.1,0.2,0.1S17.7,16,17.7,16L17.7,16L17.7,16z"
	/>
<path class="st1" d="M6.5,14.3V14l1.7,0.1c-0.1,0.1-0.3,0.2-0.5,0.3C7.6,14.3,6.5,14.3,6.5,14.3L6.5,14.3L6.5,14.3z"/>
<path class="st1" d="M6.5,14.7h0.7C7.2,14.7,6.7,15.1,6.5,14.7L6.5,14.7z"/>
<path class="st3" d="M13.9,6.2l0.6-1.3c0.7-0.6,1-1.5,0.9-2.4c-0.2-1.4-3.6-1.6-4.7-1.5C10,1,9.3,1.2,8.6,1.4
	c2.2-0.7,4.5-0.9,6.7-0.5C18.3,1.6,17,3.5,17,3.5C16.2,4.6,15.1,5.5,13.9,6.2L13.9,6.2L13.9,6.2z"/>
<path class="st3" d="M2.6,3.7l1.6,0.1c0,0,1-1.4,4.3-2.4C6.4,1.9,4.4,2.7,2.6,3.7L2.6,3.7L2.6,3.7z"/>
<path class="st3" d="M4.8,10.3c1.8-0.6,3.6-1.2,5.3-2L8.2,8.6C7.1,9.3,6,9.8,4.8,10.3L4.8,10.3L4.8,10.3z"/>
<path class="st3" d="M5.2,13c0,0-1.8,1.2-1.8,2.4c0,1.4,3.2,1.6,3.2,1.6s-3.6,0.2-4-1.5C2.5,15,3.7,13.7,5.2,13L5.2,13L5.2,13z"/>
<path class="st1" d="M8.6,17.1L8.6,17.1c0,0,0,0.1,0,0.1v0.1c0,0,0,0.1,0,0.1c0,0-0.1,0-0.1,0H8.4V17h0.1h0.1l0,0L8.6,17.1z
	 M8.4,17.8L8.4,17.8c0.2,0,0.3,0,0.4,0c0.1,0,0.1,0,0.2-0.1c0,0,0.1-0.1,0.1-0.1c0-0.1,0-0.1,0-0.2v-0.2c0,0,0-0.1,0-0.1
	C9,17,9,17,9,17l-0.1-0.1H8.8H8.6H8v1.5h0.4L8.4,17.8L8.4,17.8L8.4,17.8z"/>
<polygon class="st1" points="10.1,18.3 9.2,18.3 9.2,16.8 9.6,16.8 9.6,18.1 10.1,18.1 10.1,18.3 "/>
<path class="st1" d="M10.7,17.1l0.1,0.7h-0.2L10.7,17.1L10.7,17.1z M10.8,18v0.4h0.4L11,16.8h-0.6l-0.3,1.5h0.4l0.1-0.4L10.8,18
	L10.8,18z"/>
<polygon class="st1" points="11.6,17.8 11.2,16.8 11.6,16.8 11.8,17.4 12,16.8 12.4,16.8 12,17.8 12,18.3 11.6,18.3 11.6,17.8 "/>
<polygon class="st1" points="13.4,18.3 12.5,18.3 12.5,16.8 13.4,16.8 13.4,17 12.9,17 12.9,17.4 13.3,17.4 13.3,17.6 12.9,17.6 
	12.9,18.1 13.4,18.1 13.4,18.3 "/>
<path class="st1" d="M14,17c0,0,0.1,0,0.1,0c0,0,0,0.1,0,0.1c0,0.1,0,0.1,0,0.2c0,0-0.1,0.1-0.1,0h-0.1L14,17L14,17L14,17z
	 M13.9,17.6L13.9,17.6h0.2c0,0,0,0,0,0.1c0,0.1,0,0.1,0,0.2v0.2c0,0.1,0,0.1,0,0.2h0.5c0,0,0-0.1,0-0.1c0,0,0-0.1,0-0.1v-0.3
	c0-0.1,0-0.2-0.1-0.2c-0.1-0.1-0.2-0.1-0.2-0.1l0,0c0.1,0,0.2,0,0.2-0.1c0.1-0.1,0.1-0.2,0.1-0.3c0-0.1,0-0.2-0.1-0.3
	c-0.1-0.1-0.2-0.1-0.4-0.1h-0.6v1.5h0.4L13.9,17.6L13.9,17.6L13.9,17.6z"/>
<path class="st1" d="M15.8,17.1v0.2h-0.4v-0.2c0,0,0-0.1,0-0.1c0,0-0.1,0-0.1,0c0,0-0.1,0-0.1,0c0,0,0,0,0,0.1l0,0c0,0,0,0.1,0,0.1
	l0.4,0.3c0.1,0.1,0.1,0.1,0.2,0.2c0,0.1,0.1,0.1,0.1,0.2c0,0.1,0,0.2-0.1,0.3c0,0.1-0.1,0.1-0.2,0.1c-0.1,0-0.2,0.1-0.3,0.1
	c-0.1,0-0.2,0-0.3,0c-0.1,0-0.1-0.1-0.2-0.1c0,0,0-0.1-0.1-0.1c0,0,0-0.1,0-0.1v-0.3h0.4V18c0,0,0,0.1,0,0.1c0,0,0.1,0,0.1,0
	c0,0,0.1,0,0.1,0c0,0,0-0.1,0-0.1l0,0c0,0,0,0,0-0.1c0,0-0.1-0.1-0.1-0.1l-0.3-0.2c-0.1,0-0.1-0.1-0.2-0.2c0-0.1,0-0.1,0-0.2
	c0-0.1,0-0.2,0.1-0.2c0-0.1,0.1-0.1,0.2-0.1c0.1,0,0.2-0.1,0.3,0c0.1,0,0.3,0,0.4,0.1C15.8,17,15.8,17,15.8,17.1L15.8,17.1
	L15.8,17.1z"/>
<path class="st4" d="M10.6,15.6h0.1l0.1,0.2l0.1,0.1l0,0l0.1-0.1l0.1-0.2h0.1v0.9H11v-0.4c0-0.1,0-0.2,0-0.3l0,0
	c0,0.1-0.1,0.2-0.1,0.3l0,0c0-0.1-0.1-0.2-0.1-0.3l0,0c0,0.1,0,0.2,0,0.3v0.4h-0.1L10.6,15.6L10.6,15.6L10.6,15.6z"/>
<polygon class="st4" points="11.8,15.6 11.9,15.6 11.9,16.5 12,16.5 12,16.3 12.1,16.3 12.1,16.6 11.8,16.6 11.8,15.6 "/>
<path class="st4" d="M12.8,15.6H13c0.1,0,0.1,0,0.1,0.1c0,0,0,0,0,0V16c0,0,0,0.1-0.1,0.1c0,0,0.1,0,0.1,0.1c0,0,0,0,0,0v0.2
	c0,0.1-0.1,0.1-0.1,0.1c0,0,0,0,0,0h-0.2L12.8,15.6L12.8,15.6L12.8,15.6z M12.9,16.1L12.9,16.1l0.1-0.3h-0.1L12.9,16.1L12.9,16.1
	L12.9,16.1z M12.9,16.5L12.9,16.5l0.1-0.3h-0.1L12.9,16.5L12.9,16.5L12.9,16.5z"/>
<polygon class="st4" points="9.9,18.6 9.9,19 9.7,19 9.7,18.6 9.4,18.6 9.4,19.6 9.7,19.6 9.7,19.2 9.9,19.2 9.9,19.6 10.2,19.6 
	10.2,18.6 "/>
<path class="st4" d="M10.9,18.7v0.6c0.1,0.1,0.2,0.2,0.4,0.2c0.2,0,0.3,0,0.4-0.2v-0.7C11.7,18.5,10.9,18.5,10.9,18.7z M11.2,18.7
	h0.1v0.6h-0.1V18.7z"/>
<rect x="12.5" y="18.6" class="st4" width="0.3" height="1"/>
<path class="st4" d="M14.3,18.9v-0.1c0,0,0,0-0.1-0.1c-0.2-0.2-0.5-0.2-0.7,0.1v0.6c0.1,0.1,0.2,0.2,0.4,0.2c0.1,0,0.3,0,0.4-0.2
	v-0.2H14v0.1h-0.2v-0.5H14v0.1H14.3z"/>
<path class="st4" d="M15.8,18.7v-0.2h-0.5c-0.1,0-0.2,0-0.2,0.1v0.7c0,0.1,0.1,0.2,0.2,0.1h0.5v-0.1h0h-0.4v-0.3h0.3V19h-0.3v-0.2
	H15.8z"/>
<path class="st4" d="M8.5,18.9h0.3v-0.2c0,0,0,0-0.1-0.1c-0.2-0.1-0.4-0.1-0.5-0.1c-0.1,0-0.1,0.1-0.2,0.1v0v0.7
	c0.1,0.1,0.2,0.2,0.4,0.2c0.2,0,0.3,0,0.4-0.2v-0.2H8.5v0.1v0H8.3v-0.5L8.5,18.9L8.5,18.9L8.5,18.9z"/>
<path class="st5" d="M16.7,18.9c-0.1,0.1-0.1,0.2-0.1,0.3c0,0.1,0,0.2,0.1,0.3c0.2,0.2,0.4,0.2,0.6,0c0,0,0,0,0,0
	c0.2-0.2,0.2-0.5,0-0.6C17.1,18.8,16.9,18.8,16.7,18.9C16.7,18.9,16.7,18.9,16.7,18.9L16.7,18.9z M17.3,19.6c-0.2,0.2-0.5,0.2-0.7,0
	c0,0,0,0,0,0c-0.2-0.2-0.2-0.5,0-0.7c0.2-0.2,0.5-0.2,0.7,0c0,0,0,0,0,0c0.1,0.1,0.2,0.2,0.1,0.4C17.5,19.4,17.4,19.5,17.3,19.6
	L17.3,19.6z M17.1,19.1H17h-0.1v0.2h0.2C17.1,19.2,17.1,19.2,17.1,19.1C17.1,19.1,17.1,19.1,17.1,19.1L17.1,19.1L17.1,19.1z M17,19
	h0.1c0.1,0,0.1,0.1,0.1,0.1c0,0,0,0.1,0,0.1h-0.1c0,0,0.1,0,0.1,0.1c0,0,0,0.1,0,0.1l0,0l0,0l0,0h-0.1v0c0,0,0-0.1,0-0.1h-0.1h-0.1
	v0.2h-0.1V19L17,19L17,19z"/>
</svg>
