<svg id="Layer_1" data-name="Layer 1" xmlns="http://www.w3.org/2000/svg" viewBox="0 0 150.42 30.56"><defs><style>.cls-1{fill:#f9ae40;}.cls-2{fill:#102544;}</style></defs><title>cta_MLB_16_National_Banners_01a</title><rect class="cls-1" width="150.42" height="30.56"/><path class="cls-2" d="M515.27,398.2H520v2.26h-1.06l0,8h2.64v-1.09h2.26v3.38h-8.5v-2.28h1.07v-8h-1.09V398.2Z" transform="translate(-501.29 -389.87)"/><path class="cls-2" d="M528.08,398.2h8.53v3.38h-2.27v-1.1h-2.62v2.69h3.68v2.24h-3.68v3.07h2.62v-1.09h2.27v3.36h-8.51V408.5h1.08v-8h-1.1V398.2Z" transform="translate(-501.29 -389.87)"/><path class="cls-2" d="M543.59,398.2h3l1.85,10.28h1.1v2.26h-4v-2.26h0.62L546,407.37h-1.86L544,408.48h0.64v2.26h-4.06v-2.26h1.09Zm1.52,3.33-0.56,3.58h1.13Z" transform="translate(-501.29 -389.87)"/><path class="cls-2" d="M553.24,398.2h7l1.67,1.66v4.82l-1.5,1.5,1.11,2.31h1.11v2.26h-4.14v-2.26h0.33l-1-2.19h-1v2.19h0.76v2.26h-4.42v-2.26h1.1v-8h-1.1V398.2Zm3.65,2.27V404h2l0.56-.53V401l-0.53-.53h-2Z" transform="translate(-501.29 -389.87)"/><path class="cls-2" d="M572,398.2h4.11v2.26H575v8h1.09v2.26h-4.79v-2.26h0.59l-2-4.24v4.24h0.62v2.26h-4.07v-2.26h1.1v-8h-1.1V398.2h4.84v2.26h-0.45l1.87,3.66v-3.66H572V398.2Z" transform="translate(-501.29 -389.87)"/><path class="cls-2" d="M595.31,398.21h4v2.26h-1.08v8h1.08v2.26h-4.4v-2.26H596v-5.25l-1.67,4.44h-1.68L591,403.24v5.25h1.09v2.26H587.6v-2.26h1.1v-8h-1.09v-2.26h4.06l1.81,5Z" transform="translate(-501.29 -389.87)"/><path class="cls-2" d="M605.21,398.21h4.24l1.68,1.66v9.21l-1.68,1.67h-4.24l-1.67-1.67v-9.2Zm1.31,10.25h1.61l0.46-.48v-7l-0.44-.45h-1.6l-0.48.48v7Z" transform="translate(-501.29 -389.87)"/><path class="cls-2" d="M615.57,398.2h7l1.67,1.66v4.82l-1.5,1.5,1.11,2.31H625v2.26h-4.14v-2.26h0.33l-1-2.19h-1v2.19H620v2.26h-4.42v-2.26h1.1v-8h-1.1V398.2Zm3.65,2.27V404h2l0.56-.53V401l-0.53-.53h-2Z" transform="translate(-501.29 -389.87)"/><path class="cls-2" d="M628.75,398.2h8.53v3.38H635v-1.1h-2.62v2.69h3.68v2.24h-3.68v3.07H635v-1.09h2.27v3.36h-8.51V408.5h1.08v-8h-1.1V398.2Z" transform="translate(-501.29 -389.87)"/></svg>