<svg id="Layer_1" data-name="Layer 1" xmlns="http://www.w3.org/2000/svg" viewBox="0 0 226.3 22.81"><defs><style>.cls-1{fill:#f9ae40;}</style></defs><title>h2_MLB_16_National_Banners_01a</title><path class="cls-1" d="M491.46,345.62h5.85l-0.62,1.85,0,19.26,0.82,1.7h-6.13l0.59-1.62,0.08-19.34Z" transform="translate(-464.99 -345.62)"/><path class="cls-1" d="M508.75,345.69h7.71l3,3v3.2l-4.6,2v-3.31l-0.78-.79-2.9,0-0.87.87v2.82l8.8,4.69v7.17l-3.06,3.08h-7.69l-3-3v-3.28l4.6-1.62v2.95l0.81,0.81h2.9l0.87-.87v-2.7l-8.8-4.69v-7.31Z" transform="translate(-464.99 -345.62)"/><path class="cls-1" d="M543.22,345.67h7.72l3.06,3v2.08l-4.61,2v-2.17l-0.81-.83-2.92,0-0.87.87v12.81l0.82,0.81,2.9,0,0.84-.87,0-1,4.63-2v5l-3.06,3h-7.72l-3-3V348.7Z" transform="translate(-464.99 -345.62)"/><path class="cls-1" d="M565.2,345.69h7.69l3,3v16.71l-3,3H565.2l-3-3V348.71Zm2.38,18.6h2.92l0.84-.89V350.63l-0.79-.82h-2.89l-0.89.89v12.76Z" transform="translate(-464.99 -345.62)"/><path class="cls-1" d="M596.68,345.69h6L602,347.56v19.18l0.82,1.7h-5.58l0.63-1.71V354.82l-3,8h-3.06l-3-8v11.92l0.82,1.7H584l0.63-1.71V347.57L584,345.69h6l3.3,9Z" transform="translate(-464.99 -345.62)"/><path class="cls-1" d="M611,345.62h5.85l-0.62,1.85,0,19.26,0.82,1.7H611l0.59-1.62,0.08-19.34Z" transform="translate(-464.99 -345.62)"/><path class="cls-1" d="M625.68,347.34l-0.79-1.65h4.71q-0.17,0,5.45,10.73l0-9-0.7-1.7h5.55l-0.62,1.66v19.56l0.73,1.52h-4.44l-5.66-11.81v10.1l0.82,1.71h-5.68l0.6-1.65V347.34Z" transform="translate(-464.99 -345.62)"/><path class="cls-1" d="M651.21,345.69h7.69l3,3,0,2.06L656.91,353l0.44-1.81v-0.57l-0.78-.82-2.9,0-0.89.86v12.81l0.82,0.81,2.9,0,0.84-.84v-4.23L656,358.05l6-2.6,0,10-3,3h-7.69l-3-3V348.71Z" transform="translate(-464.99 -345.62)"/><polygon class="cls-1" points="6.03 6.08 7.68 10.16 12.06 10.46 8.69 13.29 9.76 17.56 6.03 15.22 2.3 17.56 3.37 13.29 0 10.46 4.39 10.16 6.03 6.08"/><polygon class="cls-1" points="220.27 6.08 221.92 10.16 226.3 10.46 222.93 13.29 224 17.56 220.27 15.22 216.54 17.56 217.61 13.29 214.24 10.46 218.63 10.16 220.27 6.08"/></svg>