<svg id="Layer_1" data-name="Layer 1" xmlns="http://www.w3.org/2000/svg" viewBox="0 0 17.05 16.29"><defs><style>.cls-1{fill:#001722;}.cls-2{fill:#fff;}.cls-3{fill:#ba9108;}.cls-4{fill:#007ac1;}.cls-5{fill:#e40473;}.cls-6{fill:#231f20;fill-rule:evenodd;}</style></defs><title>player_MLB_16_National_Banners_01a</title><polygon class="cls-1" points="6.44 0.09 13.87 0.09 13.87 16.2 6.44 16.2 6.44 0.09 6.44 0.09"/><path class="cls-2" d="M713,493.06h-7.62V476.77H713v16.29Zm-7.43-.19h7.24V477h-7.24v15.92Z" transform="translate(-699.07 -476.77)"/><path class="cls-1" d="M715.11,491a6.31,6.31,0,0,1-1.79-.23,1,1,0,0,1-.16-0.85l-0.53-.82a1.92,1.92,0,0,1-.74-0.5l0,0-0.16-.63-3.87-1.84-0.08-1.38a0.25,0.25,0,0,1-.09-0.29,2.64,2.64,0,0,1,.52-0.61,5.19,5.19,0,0,0-.41-0.35,1.59,1.59,0,0,1-.23-0.2l0,0-0.06,0c-0.88.36-.88,0.36-1,0.28a3.43,3.43,0,0,1-.58-1.09v0l0.13-1.76,0.73,0.88,0.2,0,0.09-.13a1,1,0,0,1-.69-0.39l0-.08h0l0.16-.49,0.47-.53,1.17,0h0a6.12,6.12,0,0,1,.74.12h0a4.15,4.15,0,0,0,.57,0h0.43l-0.65.55h-0.06a3.23,3.23,0,0,1-.68-0.06l-0.26-.06v0.34l0.15,0.51-0.09.33a2.14,2.14,0,0,0,.7.23h0l0,0c1.1,1,1.28,1.79,1.24,1.91l-0.13.34L710,483.9l-0.05.67,0,0,0,0.08h-0.11l-0.22,0,0.06,0,0.23,0.22h0a0.7,0.7,0,0,1,.4.14l0.33,0.28h0a1.15,1.15,0,0,1,.45.23l-0.15.26a0.77,0.77,0,0,0-.6,0,0.68,0.68,0,0,0,.32.29h0a1.39,1.39,0,0,0,.49.14c0.83,0,.95.23,0.94,0.35v0.07l0.79-.2,0.44,0.89-0.12,0,0.54,1,0.61,0.91,0-.06H715l0.1,0.23H716l0,0a0.56,0.56,0,0,1,0,.64,1.82,1.82,0,0,1-.91.76h0Z" transform="translate(-699.07 -476.77)"/><path class="cls-1" d="M705.37,490.2l-1.44-.07h-0.09l-0.23-.41,0.21-.12-0.24-.62h-0.15l-0.07-.49-0.08-.37,0.16,0,0-.12,0.18-.16,1-.11,0.1,0.09,1,0.06,0.54,0,0.17,0v0l0,0,0.59-.17,0.48,0v0l0,0h0.05l0.33-.82-0.14-.05,0.29-1,0.57,1-0.34.57,0.18-.13a1.76,1.76,0,0,1,1.49-.29l0.08,0,0,0.08a2.66,2.66,0,0,1-.55,1.15,3.07,3.07,0,0,0-.7.92v0.07l0,0c-0.06.06-.06,0.06-2.7-0.09H706l-0.19-.17-0.57.12-0.12.54a0.73,0.73,0,0,1,.53.44v0.07l0,0.06A0.23,0.23,0,0,1,705.37,490.2Z" transform="translate(-699.07 -476.77)"/><path class="cls-1" d="M699.07,481.19l1.07-1,6.42,0.32-0.45.61Z" transform="translate(-699.07 -476.77)"/><path class="cls-3" d="M708,479.65a0.7,0.7,0,0,0,0-.26c0-.09-0.22-0.48-0.22-0.48a0.73,0.73,0,0,1,0-.49,3.21,3.21,0,0,1,.75-0.62,0.77,0.77,0,0,1,.6.07l0.3,0.41,0.59-.16a0.12,0.12,0,0,1,.13.17l-0.45.41V479l0.13,0.18-0.11.15,0,0.12-0.07.1v0.35a0.68,0.68,0,0,1-.56,0v0.17a0.38,0.38,0,0,1-.44-0.11s0.08-.58.08-0.58a0.76,0.76,0,0,0,.65.36l0.13-.28-0.1-.25,0-.15-0.39-.28a0.08,0.08,0,0,1,.11-0.06,0.19,0.19,0,0,0,.21,0,0.23,0.23,0,0,0-.18-0.22l-0.63.28s-0.22-.19-0.29,0a0.3,0.3,0,0,0,0,.3,0.24,0.24,0,0,0,.2,0l0,0.35-0.32-.07-0.25.29h0Z" transform="translate(-699.07 -476.77)"/><polygon class="cls-3" points="8.62 3.15 9.11 2.83 9.24 3.16 8.62 3.15 8.62 3.15"/><path class="cls-3" d="M710.11,479.67l0.64,0.1,0.41,0.91a2.56,2.56,0,0,1-.38.81l-1,0,0.91-.76,0-.75-0.57-.35h0Z" transform="translate(-699.07 -476.77)"/><path class="cls-3" d="M709.88,480l0.31,0.08,0.28,0.38a0.78,0.78,0,0,1-.54.79l-1.7-.34-0.08-.26,1.43,0.15-0.25-.28,0.75-.08-0.21-.45h0Z" transform="translate(-699.07 -476.77)"/><path class="cls-3" d="M708.77,480.17a6,6,0,0,0-.72-0.11l-1.1,0-0.4.46-0.07.2,0.22,0,0.32-.41,0.29,0a0.5,0.5,0,0,0-.28.53,0.25,0.25,0,0,1-.25,0s-0.16.22-.27,0.06l0,0.06a0.92,0.92,0,0,0,.83.34,4.37,4.37,0,0,1-.28.4l-0.35.06-0.54-.65-0.1,1.34a3.33,3.33,0,0,0,.54,1s0.79-.31.79-0.31l0.09-.22a2.09,2.09,0,0,0,.37.37c0.18,0.12.56,0.48,0.56,0.48a2.67,2.67,0,0,0-.62.68,0.55,0.55,0,0,0,.11.15l0.08,1.34,3.85,1.84,0.17,0.66a1.64,1.64,0,0,0,.72.46l0.62,1a0.74,0.74,0,0,0,.11.78,9.52,9.52,0,0,0,1.66.16,1.91,1.91,0,0,0,.77-0.67,0.44,0.44,0,0,0,0-.47H715l-0.1-.24H714.3l-0.11.2-0.76-1.13-0.64-1.21,0.12,0-0.29-.59-0.76.19,0.57,0.2,0.66,1.15a0.37,0.37,0,0,1-.27.27l0.46,0.06a1.41,1.41,0,0,1-.46.34l-0.67-1.37,0.15-.31a1.07,1.07,0,0,0-.55.27l-0.55-.64a0.52,0.52,0,0,1,.56-0.21s0-.16-0.79-0.19a1.54,1.54,0,0,1-.56-0.16s-0.59-.33-0.34-0.55a0.93,0.93,0,0,1,.75,0,1.29,1.29,0,0,0-1.2-.17c-0.11,0-.12-0.07-0.06-0.15a0.73,0.73,0,0,1,.52-0.18,0.7,0.7,0,0,0-.9.11s-0.05,0,0-.24a0.36,0.36,0,0,1,.25-0.25s-0.2-.2-0.63.18a0.84,0.84,0,0,1,.9-0.5,0.91,0.91,0,0,0-1,.15,1,1,0,0,0-.57.77,1.06,1.06,0,0,1,.07-0.69,1.38,1.38,0,0,1,.44-0.4h0.18a0.37,0.37,0,0,0-.36-0.21,1.38,1.38,0,0,1,.08-0.19,2.14,2.14,0,0,1,1.24.39l0-.44-1.18-.06a1,1,0,0,0-.18-0.6,0.74,0.74,0,0,1,.4.47s0.46,0,.46,0a4,4,0,0,0-.69-0.66,1.66,1.66,0,0,1,.9.65,3.08,3.08,0,0,0,.32,0,1.75,1.75,0,0,0-1.13-.83,2.06,2.06,0,0,1-.93-0.5s0.13-.34.13-0.34a2.82,2.82,0,0,0,.71.48,4.13,4.13,0,0,1,1.45,1.3,3.27,3.27,0,0,0-1.2-1.75,2,2,0,0,1-.85-0.32l0.1-.38-0.15-.49v-0.34l-0.38-.24a4.93,4.93,0,0,1,.84.12,3.26,3.26,0,0,0,.64.06l0.28-.24a4.57,4.57,0,0,1-.6,0h0Z" transform="translate(-699.07 -476.77)"/><path class="cls-3" d="M708.21,481.16l0.57,0.56,0.36,0.08a3.24,3.24,0,0,0-1-.65" transform="translate(-699.07 -476.77)"/><path class="cls-3" d="M709,481.93a5.55,5.55,0,0,1,.88,1.07l-0.27-.66a3.12,3.12,0,0,0-.61-0.41h0Z" transform="translate(-699.07 -476.77)"/><path class="cls-3" d="M709.86,482.07l0.34,0.27,0.31-.72a6.29,6.29,0,0,1-.24,1.11s0.08,0.66.08,1.24l-0.08-.08a5.11,5.11,0,0,0-.41-1.82h0Z" transform="translate(-699.07 -476.77)"/><polygon class="cls-3" points="10.97 7.13 10.95 7.46 11.4 7.68 11.4 7.51 10.97 7.13 10.97 7.13"/><path class="cls-3" d="M710.09,484.49a14.11,14.11,0,0,1,2.07,1.82s-0.84-.65-1.6-1.13a3.06,3.06,0,0,0-1-.3,1.68,1.68,0,0,1,.66-0.08s-0.15-.31-0.15-0.31h0Z" transform="translate(-699.07 -476.77)"/><path class="cls-3" d="M708.54,487.3a1.62,1.62,0,0,1,1.34-.27,3.1,3.1,0,0,1-.51,1,3.33,3.33,0,0,0-.74,1s-2.59-.13-2.59-0.13l-0.21-.19-0.75.16-0.12.59-0.13.17a1,1,0,0,1,.65.38s-1.54-.07-1.54-0.07l-0.11-.2,0.19-.11-0.32-.84h-0.12l0-.24h0.17l0-.15H703.5l0-.2,0.16,0,0-.19,0.08-.07,0.88-.1,0.09,0.08,1,0.07,0.57,0,0.78-.22,0.66,0,0.43-1.07-0.16-.06,0.15-.49,0.35,0.59-0.45.75h0.3l-0.4.32a0.37,0.37,0,0,0,.48-0.07,0.64,0.64,0,0,1-.4.37,0.49,0.49,0,0,1-.4-0.19l-0.1.41a0.47,0.47,0,0,0-.39-0.46l-0.83.22,0,0.47,0.12-.4,0.2,0.49,2-.24,0.2-1a0.34,0.34,0,0,0-.31-0.1h0Z" transform="translate(-699.07 -476.77)"/><polygon class="cls-3" points="7.18 3.84 6.94 4.16 0.38 4.24 1.12 3.53 7.18 3.84 7.18 3.84"/><path class="cls-1" d="M707.35,480.42a0.19,0.19,0,0,0,.22.11s0,0.15.25,0.1a0.42,0.42,0,0,0,0,.36s-0.2-.15-0.22,0a0.26,0.26,0,0,1-.09,0s0-.25-0.13-0.09a0.77,0.77,0,0,1,0-.47h0Z" transform="translate(-699.07 -476.77)"/><path class="cls-1" d="M707.47,481.42l0.35,0.17-0.63,1a0.52,0.52,0,0,1-.4.34,0.91,0.91,0,0,1-.39,0,0.6,0.6,0,0,1,.38-0.76H707l0.44-.68h0Z" transform="translate(-699.07 -476.77)"/><path class="cls-2" d="M714.19,489.71l-0.26.43-0.46-.6a0.75,0.75,0,0,1-.11-0.68c0-.06.13,0,0.2,0.06s0.63,0.81.63,0.81h0Z" transform="translate(-699.07 -476.77)"/><path class="cls-2" d="M704.57,488.35v-0.26l1.47,0.07a1.06,1.06,0,0,1-.45.21s-1,0-1,0h0Z" transform="translate(-699.07 -476.77)"/><path class="cls-2" d="M704.61,488.64l0.63,0s-0.4.32-.63,0h0Z" transform="translate(-699.07 -476.77)"/><path class="cls-4" d="M711,481.77l0.51-1a2.28,2.28,0,0,0,.81-1.93c-0.18-1.12-3-1.28-4-1.23a9.25,9.25,0,0,0-1.86.29,12.14,12.14,0,0,1,5.71-.4c2.62,0.63,1.46,2.15,1.46,2.15a7.41,7.41,0,0,1-2.6,2.15h0Z" transform="translate(-699.07 -476.77)"/><path class="cls-4" d="M701.26,479.75l1.41,0.11a8,8,0,0,1,3.67-2,27.08,27.08,0,0,0-5.08,1.86h0Z" transform="translate(-699.07 -476.77)"/><path class="cls-4" d="M703.14,485.1a39.9,39.9,0,0,0,4.54-1.59l-1.61.27a14.67,14.67,0,0,1-2.93,1.32h0Z" transform="translate(-699.07 -476.77)"/><path class="cls-4" d="M703.5,487.25s-1.56.94-1.52,1.9c0,1.16,2.73,1.32,2.73,1.32s-3.06.13-3.45-1.19c-0.11-.38.92-1.46,2.24-2h0Z" transform="translate(-699.07 -476.77)"/><path class="cls-2" d="M706.39,490.57a0.07,0.07,0,0,1,0,0,0.27,0.27,0,0,1,0,.09v0.12a0.12,0.12,0,0,1,0,.09,0.13,0.13,0,0,1-.09,0h-0.07v-0.39h0.14Zm-0.14.57h0.08l0.24,0a0.35,0.35,0,0,0,.14-0.06,0.25,0.25,0,0,0,.08-0.09,0.3,0.3,0,0,0,0-.13v-0.16a0.31,0.31,0,0,0,0-.12l0-.06-0.07-.06-0.12,0h-0.68v1.23h0.37v-0.48h0Z" transform="translate(-699.07 -476.77)"/><polygon class="cls-2" points="8.59 14.84 7.82 14.84 7.82 13.6 8.19 13.6 8.19 14.65 8.59 14.65 8.59 14.84 8.59 14.84"/><path class="cls-2" d="M708.19,490.56l0.09,0.54h-0.15l0.06-.54h0Zm0.11,0.74,0,0.3h0.37l-0.2-1.23H708l-0.27,1.23H708l0.06-.3h0.2Z" transform="translate(-699.07 -476.77)"/><polygon class="cls-2" points="9.86 14.38 9.55 13.6 9.94 13.6 10.07 14.09 10.21 13.6 10.54 13.6 10.23 14.39 10.23 14.84 9.86 14.84 9.86 14.38 9.86 14.38"/><polygon class="cls-2" points="11.4 14.84 10.64 14.84 10.64 13.6 11.4 13.6 11.4 13.79 11.01 13.79 11.01 14.06 11.39 14.06 11.39 14.25 11.01 14.25 11.01 14.65 11.4 14.65 11.4 14.84 11.4 14.84"/><path class="cls-2" d="M711,490.55a0.12,0.12,0,0,1,.09,0,0.16,0.16,0,0,1,0,.12,0.23,0.23,0,0,1,0,.13,0.12,0.12,0,0,1-.11,0H711v-0.32H711ZM711,491h0l0.09,0a0.09,0.09,0,0,1,0,.05,0.45,0.45,0,0,1,0,.13v0.19a0.3,0.3,0,0,0,0,.18h0.38a0.23,0.23,0,0,1,0-.08,0.36,0.36,0,0,1,0-.11v-0.25a0.21,0.21,0,0,0-.07-0.17,0.34,0.34,0,0,0-.21-0.05h0a0.4,0.4,0,0,0,.2-0.07,0.26,0.26,0,0,0,.09-0.21,0.25,0.25,0,0,0-.1-0.21,0.56,0.56,0,0,0-.32-0.07h-0.51v1.23H711V491h0Z" transform="translate(-699.07 -476.77)"/><path class="cls-2" d="M712.56,490.61v0.2h-0.37v-0.19a0.08,0.08,0,0,0,0-.07l-0.08,0-0.07,0a0.07,0.07,0,0,0,0,.06v0a0.08,0.08,0,0,0,0,.06l0.31,0.23a1,1,0,0,1,.18.15,0.25,0.25,0,0,1,0,.17,0.39,0.39,0,0,1,0,.21,0.33,0.33,0,0,1-.16.12,0.77,0.77,0,0,1-.28,0,0.82,0.82,0,0,1-.22,0,0.38,0.38,0,0,1-.16-0.08,0.2,0.2,0,0,1-.05-0.08,0.3,0.3,0,0,1,0-.1v-0.22H712v0.22a0.08,0.08,0,0,0,0,.06l0.07,0,0.08,0a0.12,0.12,0,0,0,0-.09v0a0.09,0.09,0,0,0,0,0l-0.12-.1L711.8,491a0.55,0.55,0,0,1-.15-0.14,0.27,0.27,0,0,1,0-.13,0.31,0.31,0,0,1,0-.19,0.33,0.33,0,0,1,.15-0.11,0.8,0.8,0,0,1,.28,0,0.63,0.63,0,0,1,.34.07,0.22,0.22,0,0,1,.11.19h0Z" transform="translate(-699.07 -476.77)"/><path class="cls-5" d="M708.11,489.43h0.1l0.06,0.13,0.05,0.11h0l0.05-.11,0.06-.13h0.1v0.74h-0.11v-0.34c0-.07,0-0.17,0-0.22h0c0,0.09-.08.17-0.12,0.25h0c0-.08-0.08-0.16-0.12-0.25h0c0,0.06,0,.16,0,0.22v0.34h-0.11v-0.74h0Z" transform="translate(-699.07 -476.77)"/><polygon class="cls-5" points="10.04 12.66 10.15 12.66 10.15 13.32 10.26 13.32 10.26 13.17 10.37 13.17 10.37 13.4 10.04 13.4 10.04 12.66 10.04 12.66"/><path class="cls-5" d="M710,489.43h0.22a0.1,0.1,0,0,1,.11.08v0.23a0.07,0.07,0,0,0,0,.13v0.23a0.1,0.1,0,0,1-.11.08H710v-0.74h0Zm0.11,0.33h0.11V489.5H710.1v0.26h0Zm0,0.33h0.11v-0.26H710.1v0.26h0Z" transform="translate(-699.07 -476.77)"/><path class="cls-5" d="M706.56,492.05v-0.12a0.46,0.46,0,0,0-.68,0v0.53a0.46,0.46,0,0,0,.68,0v-0.12h-0.25v0.07h-0.19V492h0.19v0.07h0.25Z" transform="translate(-699.07 -476.77)"/><polygon class="cls-5" points="8.44 15.02 8.44 15.35 8.26 15.35 8.26 15.02 8.01 15.02 8.01 15.83 8.26 15.83 8.26 15.5 8.44 15.5 8.44 15.83 8.69 15.83 8.69 15.02 8.44 15.02"/><path class="cls-5" d="M708.37,491.93v0.53a0.44,0.44,0,0,0,.66,0v-0.53C709,491.73,708.37,491.73,708.37,491.93Zm0.39,0v0.52h-0.12v-0.52h0.12Z" transform="translate(-699.07 -476.77)"/><rect class="cls-5" x="10.63" y="15.02" width="0.25" height="0.82"/><path class="cls-5" d="M711.3,492.06v-0.12a0.46,0.46,0,0,0-.68,0v0.53a0.46,0.46,0,0,0,.68,0v-0.12H711v0.07h-0.19V492H711v0.07h0.25Z" transform="translate(-699.07 -476.77)"/><path class="cls-5" d="M712.53,491.94v-0.15h-0.38a0.18,0.18,0,0,0-.21.11v0.59a0.18,0.18,0,0,0,.21.11h0.38v-0.15h-0.35v-0.18h0.26v-0.15h-0.26v-0.18h0.35Z" transform="translate(-699.07 -476.77)"/><path class="cls-6" d="M713.32,492.1a0.35,0.35,0,0,0-.11.26,0.36,0.36,0,0,0,.11.26,0.36,0.36,0,0,0,.52,0,0.37,0.37,0,0,0,0-.52,0.36,0.36,0,0,0-.52,0h0Zm0.56,0.56a0.42,0.42,0,1,1,.12-0.3,0.41,0.41,0,0,1-.12.3h0Zm-0.22-.46-0.1,0h-0.07v0.17h0.15a0.07,0.07,0,0,0,0-.07,0.07,0.07,0,0,0,0-.07h0Zm-0.09-.07,0.13,0a0.12,0.12,0,0,1,.07.12,0.1,0.1,0,0,1,0,.09l-0.07,0a0.11,0.11,0,0,1,.08,0,0.13,0.13,0,0,1,0,.07v0.09h-0.08v-0.05a0.11,0.11,0,0,0,0-.11l-0.09,0h-0.06v0.18h-0.08v-0.47h0.16Z" transform="translate(-699.07 -476.77)"/></svg>