<svg id="Layer_1" data-name="Layer 1" xmlns="http://www.w3.org/2000/svg" viewBox="0 0 112.92 30.21"><defs><style>.cls-1{fill:#d92827;}.cls-2{fill:#fff;}</style></defs><title>cta_MLB_16_National_Banners_01e</title><rect class="cls-1" width="112.92" height="30.21"/><path class="cls-2" d="M597.64,58.31l1.64,1.64V63.3l-1,1,1,1v3.76l-1.6,1.59h-7v-2.2h1.09V60.63H590.7V58.31h6.95Zm-3.36,2.33v3.48l2-1,0.51-.53V61.16l-0.54-.53h-1.94Zm0,6v1.91h1.94l0.55-.53V66.13l-0.53-.53Z" transform="translate(-577.17 -49.1)"/><path class="cls-2" d="M608.65,58.31H613v2.24H612l0,8.61-1.58,1.57h-4.27l-1.65-1.63V60.55h-1.09V58.31h4.4v2.24H607v7.51l0.44,0.43H609l0.46-.47V60.55h-0.79V58.31Z" transform="translate(-577.17 -49.1)"/><path class="cls-2" d="M621.64,58.32h3.87v2.24h-1l-2,4.89v3h1.09v2.23h-4.67V68.49h1.08v-3l-2-4.89h-1V58.32h3.87v2.24h-0.27l0.74,1.84,0.72-1.84h-0.29V58.32Z" transform="translate(-577.17 -49.1)"/><path class="cls-2" d="M642.13,58.31h4.07v2.24h-1.08v7.93h1.08v2.24h-4.74V68.48H642l-2-4.2v4.2h0.61v2.24h-4V68.48h1.09V60.55h-1.09V58.31h4.79v2.24H641l1.85,3.63V60.55h-0.67V58.31Z" transform="translate(-577.17 -49.1)"/><path class="cls-2" d="M652.15,58.31h4.2L658,60v9.11l-1.66,1.65h-4.2l-1.65-1.65V60Zm1.3,10.14H655L655.5,68V61l-0.43-.44h-1.58L653,61v7Z" transform="translate(-577.17 -49.1)"/><path class="cls-2" d="M672,58.31h4.3v2.24h-1.06l-2.4,10.17H670.4l-1.24-6-1.25,6h-2.42L663,60.55h-1.08V58.31h4.27v2.24h-0.67l1.14,5.1,0.9-5.1h-0.53V58.31h4.15v2.24h-0.52l0.93,5.1,1.18-5.1H672V58.31Z" transform="translate(-577.17 -49.1)"/></svg>