<svg id="Layer_1" data-name="Layer 1" xmlns="http://www.w3.org/2000/svg" viewBox="0 0 68.01 14.69"><defs><style>.cls-1{fill:#fff;}.cls-2{fill:#ec1f33;}.cls-3{fill:#232f64;}.cls-4{fill:#2e2f79;}</style></defs><title>mlb_MLB_16_National_Banners_01a</title><path class="cls-1" d="M2.17,0H65.84A2.16,2.16,0,0,1,68,2.17v9.92a2.17,2.17,0,0,1-2.17,2.17H2.17A2.17,2.17,0,0,1,0,12.09V2.17A2.17,2.17,0,0,1,2.17,0Z"/><path class="cls-2" d="M696,479.43a1.43,1.43,0,0,0-1-.42h-7.72l3.57,6,0.33,0,0.19,0.27v0.26l0.23,0,0.2,0.29v0.24l0.23,0s0.23,0.24.23,0.26V487a3.84,3.84,0,0,0,1,.64,1.9,1.9,0,0,1,.53.9,1.57,1.57,0,0,1,.5.76,2.38,2.38,0,0,1-1.32,1.62h-2.2v0.94H695a1.45,1.45,0,0,0,1.44-1.44v-9.92A1.44,1.44,0,0,0,696,479.43Z" transform="translate(-629.13 -478.28)"/><path class="cls-3" d="M685.14,479H631.29a1.44,1.44,0,0,0-1.44,1.44v9.92a1.44,1.44,0,0,0,1.44,1.44h49l-0.56-.94h-1.07c0-2.66.91-4.15,2-4.43a1.05,1.05,0,0,0-.11-1,5.21,5.21,0,0,1-.63,0c-0.14,0,0-.18,0-0.18l0.5-1.09-0.07-.3h-1.86s1.54-1.07,1.54-1.07c0.08-2.83,3-3,4.73-1.88a3.17,3.17,0,0,1,1,3,0.47,0.47,0,0,1-.27,0s-0.18,1,.29,1h2a3.14,3.14,0,0,1,1.63.53l0.2-.71Z" transform="translate(-629.13 -478.28)"/><path class="cls-1" d="M655.3,487.67a1,1,0,0,1,.71.29,1,1,0,0,1,0,1.41,1,1,0,0,1-1.72-.71,1,1,0,0,1,.29-0.7A1,1,0,0,1,655.3,487.67Z" transform="translate(-629.13 -478.28)"/><path class="cls-1" d="M662,485.24l-1.41.29a1.17,1.17,0,0,0-.33-0.71,0.93,0.93,0,0,0-.66-0.24,1,1,0,0,0-.85.41,2.31,2.31,0,0,0-.32,1.38,2.68,2.68,0,0,0,.32,1.53,1,1,0,0,0,.87.45,0.9,0.9,0,0,0,.67-0.27,1.69,1.69,0,0,0,.37-0.91l1.41,0.28a2.91,2.91,0,0,1-.84,1.65,2.4,2.4,0,0,1-1.66.56,2.34,2.34,0,0,1-1.89-.84,4.2,4.2,0,0,1,0-4.66,2.37,2.37,0,0,1,1.91-.84,2.42,2.42,0,0,1,1.57.47A2.67,2.67,0,0,1,662,485.24Z" transform="translate(-629.13 -478.28)"/><path class="cls-1" d="M664.5,485.11a1.16,1.16,0,0,1,1.88,0,2.17,2.17,0,0,1,.38,1.37,2.21,2.21,0,0,1-.38,1.39,1.16,1.16,0,0,1-1.88,0A2.7,2.7,0,0,1,664.5,485.11ZM663,488.18a2.44,2.44,0,0,0,1,1.1,2.85,2.85,0,0,0,1.42.38,2.53,2.53,0,0,0,2-.9,3.67,3.67,0,0,0,0-4.54,2.56,2.56,0,0,0-2-.89,2.71,2.71,0,0,0-1.44.39,2.6,2.6,0,0,0-1,1.14,3.61,3.61,0,0,0-.35,1.55A4.06,4.06,0,0,0,663,488.18Z" transform="translate(-629.13 -478.28)"/><path class="cls-1" d="M668.8,483.59h1.32v0.83a2.06,2.06,0,0,1,1.69-1,1.66,1.66,0,0,1,.9.24,1.77,1.77,0,0,1,.63.73,2.59,2.59,0,0,1,.77-0.73,1.73,1.73,0,0,1,.88-0.24,1.8,1.8,0,0,1,1,.27,1.62,1.62,0,0,1,.62.8,3.85,3.85,0,0,1,.15,1.26v3.88h-1.43V486.2a2.86,2.86,0,0,0-.15-1.16,0.66,0.66,0,0,0-.61-0.34,0.9,0.9,0,0,0-.56.21,1.14,1.14,0,0,0-.38.6,4.85,4.85,0,0,0-.12,1.25v2.91h-1.43v-3.32a5.2,5.2,0,0,0-.08-1.14,0.74,0.74,0,0,0-.24-0.38,0.69,0.69,0,0,0-.43-0.13,1,1,0,0,0-.59.2,1.1,1.1,0,0,0-.38.58,4.79,4.79,0,0,0-.11,1.25v2.95H668.8v-6.08Z" transform="translate(-629.13 -478.28)"/><path class="cls-1" d="M650.09,482.78a2,2,0,0,1,1.05.23,0.78,0.78,0,0,1,.27.63,0.83,0.83,0,0,1-.29.67,2.11,2.11,0,0,1-1.1.25h-0.8v-1.77h0.87Zm0.57,6.89a3.64,3.64,0,0,0,1.6-.29,2.35,2.35,0,0,0,.95-0.87,2.38,2.38,0,0,0,.37-1.29,2.28,2.28,0,0,0-.35-1.28,2.62,2.62,0,0,0-1.12-.9,2.22,2.22,0,0,0,.66-0.73,1.88,1.88,0,0,0,.2-0.87,2,2,0,0,0-.45-1.28,2.26,2.26,0,0,0-1.21-.74,14.67,14.67,0,0,0-2.36-.15h-1.33v8.41h3ZM650,486a3.16,3.16,0,0,1,1.59.32,1,1,0,0,1,.41.86,0.84,0.84,0,0,1-.35.73,3.56,3.56,0,0,1-1.58.25h-0.85V486H650Z" transform="translate(-629.13 -478.28)"/><path class="cls-1" d="M632.47,489.66v-8.38H635l1.51,5.72,1.49-5.72h2.55v8.38H639v-6.6l-1.66,6.6H635.7l-1.66-6.6v6.6h-1.57Z" transform="translate(-629.13 -478.28)"/><path class="cls-1" d="M641.45,481.25H643v6.89h3.69v1.52h-5.28v-8.41Z" transform="translate(-629.13 -478.28)"/><path class="cls-4" d="M696.79,492.51c0-.11-0.06-0.12-0.15-0.12h-0.19v0.4h0.08v-0.16h0.07l0.09,0.16h0.09l-0.1-.16A0.1,0.1,0,0,0,696.79,492.51Zm-0.15,0h-0.11v-0.1h0.09s0.09,0,.09,0S696.68,492.56,696.64,492.56Z" transform="translate(-629.13 -478.28)"/><path class="cls-4" d="M696.6,492.21a0.38,0.38,0,1,0,.38.38A0.38,0.38,0,0,0,696.6,492.21Zm0,0.68a0.3,0.3,0,1,1,.3-0.3A0.29,0.29,0,0,1,696.6,492.89Z" transform="translate(-629.13 -478.28)"/></svg>