<svg id="Layer_1" data-name="Layer 1" xmlns="http://www.w3.org/2000/svg" viewBox="0 0 152.69 39.56"><defs><style>.cls-1{fill:#fff;}.cls-2{fill:#db2b27;}.cls-3{fill:#184894;}.cls-4{fill:#231f20;}</style></defs><title>MLB_16_National_Banners_01a_name</title><path class="cls-1" d="M412.72,282.15v-3.84h-9.41v3.84H406v17.59h4.11V282.15h2.65Z" transform="translate(-403.21 -260.22)"/><path class="cls-1" d="M423.59,299.75V278.31h-4.14v8.22h-2v-8.22h-4.11v21.44h4.11v-9.2h2v9.2h4.14Z" transform="translate(-403.21 -260.22)"/><path class="cls-1" d="M433,299.75V295.9h-4.31v-5.33h3.58v-3.79h-3.58v-4.63h4.25v-3.84h-8.36v21.44H433Z" transform="translate(-403.21 -260.22)"/><path class="cls-2" d="M535.68,299.75V260.22H529l-3.11,9.21V271h2.28v28.77h7.46Z" transform="translate(-403.21 -260.22)"/><path class="cls-2" d="M555.89,295.25V281c0-3.1-1.3-4.45-4.41-4.45H545V267h3.52v5.8h7.36v-8.07c0-3.1-1.35-4.5-4.46-4.5h-9.33c-3.11,0-4.41,1.4-4.41,4.5v30.53c0,3.1,1.35,4.5,4.46,4.5h9.38C554.6,299.75,555.89,298.35,555.89,295.25ZM548.59,293H545v-9.62h3.63V293Z" transform="translate(-403.21 -260.22)"/><path class="cls-1" d="M454.31,295.3v-9.64a4,4,0,0,0-1.34-3.3l-9.55-8.86V267h3.3v6.29h7.59v-8.45c0-3.09-1.34-4.43-4.44-4.43h-9.6c-3,0-4.39,1.39-4.39,4.48v9.59a4.13,4.13,0,0,0,1.24,3.3l9.6,8.86v6.55h-3.3v-6.49h-7.54v8.61c0,3.09,1.34,4.48,4.39,4.48h9.6C452.91,299.78,454.31,298.39,454.31,295.3Z" transform="translate(-403.21 -260.22)"/><path class="cls-1" d="M474.85,299.78V260.41h-7.59v15.1h-3.61v-15.1h-7.54v39.38h7.54v-16.9h3.61v16.9h7.59Z" transform="translate(-403.21 -260.22)"/><path class="cls-1" d="M495.4,295.3V264.89c0-3.09-1.34-4.48-4.44-4.48H481c-3.1,0-4.39,1.39-4.39,4.48V295.3c0,3.09,1.29,4.48,4.39,4.48H491C494.06,299.78,495.4,298.39,495.4,295.3ZM487.81,293H484.2V267.16h3.61V293Z" transform="translate(-403.21 -260.22)"/><path class="cls-1" d="M525.24,260.41H517.5l-1.7,17.06c-0.05.52-.15,4.79-0.15,4.79s-0.1-4.28-.15-4.79l-1.76-17.06h-5.89l-1.76,17.06c-0.05.52-.15,4.74-0.15,4.74s-0.1-4.23-.15-4.74l-1.7-17.06h-7.74l4.7,39.38h7.54l2-13c0.05-.41.21-3.45,0.21-3.45s0.15,3,.21,3.45l2,13h7.54Z" transform="translate(-403.21 -260.22)"/><path class="cls-1" d="M405.63,276.36a2.42,2.42,0,0,1-2.42-2.42V262.86a2.42,2.42,0,0,1,2.42-2.42H430.4a2.42,2.42,0,0,1,2.42,2.42v11.08a2.42,2.42,0,0,1-2.42,2.42H405.63Z" transform="translate(-403.21 -260.22)"/><path class="cls-2" d="M431.54,261.72a1.61,1.61,0,0,0-1.14-.47h-6.92l4,6.65,0.37,0,0.21,0.3v0.29l0.26,0,0.23,0.32v0.27l0.26,0s0.26,0.27.26,0.29v0.62a4.3,4.3,0,0,0,1.07.71,2.12,2.12,0,0,1,.59,1,1.76,1.76,0,0,1,.56.85c-0.18.65-.85,1.75-1.47,1.81h-2.46v1.05h3.07a1.61,1.61,0,0,0,1.61-1.61V262.86a1.61,1.61,0,0,0-.47-1.14h0Z" transform="translate(-403.21 -260.22)"/><path class="cls-3" d="M421.11,261.25H405.63a1.61,1.61,0,0,0-1.61,1.61v11.08a1.62,1.62,0,0,0,1.61,1.61h10.06l-0.62-1h-1.2c0-3,1-4.63,2.21-4.95a1.17,1.17,0,0,0-.12-1.09,5.63,5.63,0,0,1-.7,0c-0.15,0,0-.2,0-0.2l0.56-1.21-0.08-.33h-2.08s1.71-1.2,1.71-1.2c0.09-3.16,3.32-3.4,5.28-2.1,1.16,0.77,1.25,2.29,1.16,3.35a0.52,0.52,0,0,1-.3,0s-0.2,1.15.32,1.15h2.28a3.49,3.49,0,0,1,1.82.59l0.23-.79-5-6.48h0Zm-13.77,12a1.11,1.11,0,1,1,1.1-1.11,1.11,1.11,0,0,1-1.1,1.11h0Z" transform="translate(-403.21 -260.22)"/><path class="cls-4" d="M432.82,276.66a0.49,0.49,0,1,1,.49.49,0.49,0.49,0,0,1-.49-0.49h0Zm0.11,0a0.38,0.38,0,1,0,.38-0.38,0.38,0.38,0,0,0-.38.38h0Zm0.61,0.25h-0.12l-0.12-.2h-0.09v0.2H433.1v-0.51h0.25c0.12,0,.2,0,0.2.16a0.13,0.13,0,0,1-.14.15l0.13,0.2h0Zm-0.18-.29c0.05,0,.09,0,0.09-0.07s-0.07-.05-0.12-0.05h-0.12v0.12h0.15Z" transform="translate(-403.21 -260.22)"/><path class="cls-4" d="M526.2,260.39v0.09h-0.26v0.68h-0.11v-0.68h-0.26v-0.09h0.62Z" transform="translate(-403.21 -260.22)"/><path class="cls-4" d="M526.38,260.39h0.15l0.22,0.65,0.22-.65h0.15v0.77H527v-0.53s0-.08,0-0.12l-0.22.65h-0.1l-0.22-.65v0s0,0,0,.09,0,0.07,0,.09v0.45h-0.1v-0.77Z" transform="translate(-403.21 -260.22)"/></svg>