<svg id="Layer_1" data-name="Layer 1" xmlns="http://www.w3.org/2000/svg" viewBox="0 0 74.9 9.6"><defs><style>.cls-1{fill:#f9ae40;}</style></defs><title>MLB_16_National_Banners_01a_ps</title><path class="cls-1" d="M251.72,268.87c-1.63,0-2.55-1.31-2.55-3.13s0.91-3.14,2.55-3.14,2.55,1.32,2.55,3.14S253.35,268.87,251.72,268.87Zm0-5.65c-1.26,0-1.85,1.14-1.85,2.52s0.6,2.51,1.85,2.51,1.85-1.13,1.85-2.51S253,263.22,251.72,263.22Z" transform="translate(-249.17 -261.76)"/><path class="cls-1" d="M255.6,264.28v0.66h0a1.53,1.53,0,0,1,2.86.87v3h-0.68v-2.68c0-.82-0.23-1.33-1-1.33a1.25,1.25,0,0,0-1.16,1.48v2.54h-0.68v-4.49h0.66Z" transform="translate(-249.17 -261.76)"/><path class="cls-1" d="M260,262.52v6.24h-0.68v-6.24H260Z" transform="translate(-249.17 -261.76)"/><path class="cls-1" d="M262.43,267.89h0l1.26-3.61h0.72l-2.32,6.14h-0.72l0.67-1.73-1.64-4.41h0.75Z" transform="translate(-249.17 -261.76)"/><path class="cls-1" d="M268.31,268.87c-1.63,0-2.55-1.31-2.55-3.13s0.91-3.14,2.55-3.14,2.55,1.32,2.55,3.14S269.94,268.87,268.31,268.87Zm0-5.65c-1.26,0-1.85,1.14-1.85,2.52s0.6,2.51,1.85,2.51,1.85-1.13,1.85-2.51S269.57,263.22,268.31,263.22Z" transform="translate(-249.17 -261.76)"/><path class="cls-1" d="M272.19,264.28v0.66h0a1.53,1.53,0,0,1,2.86.87v3h-0.68v-2.68c0-.82-0.23-1.33-1-1.33a1.25,1.25,0,0,0-1.16,1.48v2.54h-0.68v-4.49h0.66Z" transform="translate(-249.17 -261.76)"/><path class="cls-1" d="M280.7,261.76h-2.82a0,0,0,0,0,0,0v7a0,0,0,0,0,0,0H279a0,0,0,0,0,0,0v-6.21h1.31c0.48,0,.74.51,0.74,1.43s-0.26,1.43-.74,1.43h-0.79a0,0,0,0,0,0,0v0.72a0,0,0,0,0,0,0h1.13a1.41,1.41,0,0,0,1.07-.53,2.53,2.53,0,0,0,.51-1.66C282.28,262.62,281.66,261.76,280.7,261.76Z" transform="translate(-249.17 -261.76)"/><rect class="cls-1" x="33.81" width="1.18" height="7.01" rx="0.02" ry="0.02"/><path class="cls-1" d="M289.14,263.45a0,0,0,0,0,0,0h-2c-1.83,0-2.06,1.42-2.06,2.66v1.08a1.42,1.42,0,0,0,1.3,1.6h1.11a0,0,0,0,0,0,0V268a0,0,0,0,0,0,0h-0.79c-0.18,0-.43-0.09-0.43-0.75v-1.16a3.6,3.6,0,0,1,.22-1.55,0.66,0.66,0,0,1,.66-0.35H288v4.54a0,0,0,0,0,0,0h1.14a0,0,0,0,0,0,0v-5.29Z" transform="translate(-249.17 -261.76)"/><path class="cls-1" d="M297.37,264.67l-0.56,0a0.83,0.83,0,0,1-.74-1c0-.85.36-1.09,0.85-1.09h1.56a0,0,0,0,0,0,0v-0.72a0,0,0,0,0,0,0h-1.72a1.75,1.75,0,0,0-1.82,2v0.05a1.7,1.7,0,0,0,1.51,1.86l0.56,0a0.89,0.89,0,0,1,.69,1v0.17a0.91,0.91,0,0,1-.87,1.08H295.2a0,0,0,0,0,0,0v0.72a0,0,0,0,0,0,0h2c0.62,0,1.66-.26,1.66-2a2.46,2.46,0,0,0-.42-1.52A1.43,1.43,0,0,0,297.37,264.67Z" transform="translate(-249.17 -261.76)"/><path class="cls-1" d="M306.74,263.45a0,0,0,0,0,0,0h-2c-1.83,0-2.06,1.42-2.06,2.66v1.08a1.42,1.42,0,0,0,1.3,1.6H305a0,0,0,0,0,0,0V268a0,0,0,0,0,0,0h-0.8c-0.18,0-.43-0.09-0.43-0.75v-1.16a3.58,3.58,0,0,1,.22-1.55,0.66,0.66,0,0,1,.66-0.35h0.88v4.54a0,0,0,0,0,0,0h1.14a0,0,0,0,0,0,0v-5.29Z" transform="translate(-249.17 -261.76)"/><path class="cls-1" d="M302.14,263.43H300.9v-0.87a0,0,0,0,0,0,0h-1.14a0,0,0,0,0,0,0v4.62a1.42,1.42,0,0,0,1.3,1.6h0.82a0,0,0,0,0,0,0V268a0,0,0,0,0,0,0h-0.5c-0.13,0-.43,0-0.43-0.69V264.2h1.25a0,0,0,0,0,0,0v-0.72A0,0,0,0,0,302.14,263.43Z" transform="translate(-249.17 -261.76)"/><path class="cls-1" d="M310.13,263.43h-1.25v-0.87a0,0,0,0,0,0,0h-1.14a0,0,0,0,0,0,0v4.62a1.42,1.42,0,0,0,1.3,1.6h0.82a0,0,0,0,0,0,0V268a0,0,0,0,0,0,0h-0.5c-0.13,0-.43,0-0.43-0.69V264.2h1.25a0,0,0,0,0,0,0v-0.72A0,0,0,0,0,310.13,263.43Z" transform="translate(-249.17 -261.76)"/><rect class="cls-1" x="61.69" y="1.67" width="1.18" height="5.33" rx="0.02" ry="0.02"/><rect class="cls-1" x="61.69" width="1.18" height="1.05" rx="0.02" ry="0.02"/><path class="cls-1" d="M319.93,263.43h-2a0,0,0,0,0,0,0v5.29a0,0,0,0,0,0,0H319a0,0,0,0,0,0,0V264.2h0.88a0.67,0.67,0,0,1,.66.33,3.11,3.11,0,0,1,.22,1.43s0,2.79,0,2.79a0,0,0,0,0,0,0H322a0,0,0,0,0,0,0v-2.65C322,264.85,321.75,263.43,319.93,263.43Z" transform="translate(-249.17 -261.76)"/><path class="cls-1" d="M315,263.43c-1.91,0-2.15,1.43-2.15,2.67s0.25,2.67,2.15,2.67,2.16-1.43,2.16-2.67S316.87,263.43,315,263.43Zm0.73,4.22a0.92,0.92,0,0,1-1.45,0,3.33,3.33,0,0,1-.24-1.55h0a2.57,2.57,0,0,1,.35-1.69,1,1,0,0,1,1.24,0,2.58,2.58,0,0,1,.35,1.69A3.32,3.32,0,0,1,315.68,267.65Z" transform="translate(-249.17 -261.76)"/><path class="cls-1" d="M289.78,263.43a0,0,0,0,0,0,0l1.7,5.24a0.09,0.09,0,0,1,0,0l-1,2.6a0,0,0,0,0,0,0h1l0,0,3-7.88a0,0,0,0,0,0,0h-1.09l0,0-1.26,3.45s0,0,0,0L291,263.45l0,0h-1.2Z" transform="translate(-249.17 -261.76)"/><path class="cls-1" d="M323.43,268.76a0.62,0.62,0,0,0,.45-0.19,0.7,0.7,0,0,0,0-.95,0.61,0.61,0,0,0-.45-0.2,0.65,0.65,0,0,0-.64.67,0.69,0.69,0,0,0,.18.47A0.63,0.63,0,0,0,323.43,268.76Zm-0.53-.67a0.57,0.57,0,0,1,.15-0.4,0.52,0.52,0,0,1,.38-0.16,0.51,0.51,0,0,1,.37.16,0.57,0.57,0,0,1,.15.4,0.54,0.54,0,0,1-.53.55,0.52,0.52,0,0,1-.38-0.16A0.57,0.57,0,0,1,322.91,268.1Z" transform="translate(-249.17 -261.76)"/><path class="cls-1" d="M323.75,268.41l0,0a0.42,0.42,0,0,1,0-.06v-0.09a0.16,0.16,0,0,0,0-.1l0,0,0.05-.06a0.22,0.22,0,0,0,0-.11,0.19,0.19,0,0,0-.11-0.18,0.32,0.32,0,0,0-.13,0h-0.33v0.75h0.13v-0.3h0.27a0.09,0.09,0,0,1,0,.08v0.12a0.56,0.56,0,0,0,0,.06v0h0.14v0h0Zm-0.14-.48a0.1,0.1,0,0,1,0,.08,0.15,0.15,0,0,1-.09,0h-0.19v-0.21h0.27A0.09,0.09,0,0,1,323.61,267.92Z" transform="translate(-249.17 -261.76)"/></svg>